<?xml version="1.0" standalone="no"?>
<!DOCTYPE svg PUBLIC "-//W3C//DTD SVG 20010904//EN"
 "http://www.w3.org/TR/2001/REC-SVG-20010904/DTD/svg10.dtd">
<svg version="1.0" xmlns="http://www.w3.org/2000/svg"
 width="1678.000000pt" height="642.000000pt" viewBox="0 0 1678.000000 642.000000"
 preserveAspectRatio="xMidYMid meet">

<g transform="translate(0.000000,642.000000) scale(0.100000,-0.100000)"
fill="#000000" stroke="none">
<path d="M1643 6183 c-24 -51 -28 -70 -28 -148 0 -79 4 -97 29 -148 25 -53 49
-77 62 -65 2 3 -5 26 -17 53 -42 94 -41 232 1 315 25 48 25 50 1 50 -14 0 -28
-17 -48 -57z"/>
<path d="M1945 6224 c50 -117 58 -221 24 -314 -33 -89 -33 -90 -16 -90 23 0
55 59 74 135 14 55 14 77 5 128 -14 74 -51 151 -77 155 -14 3 -16 0 -10 -14z"/>
<path d="M2251 6085 c-33 -86 -61 -161 -61 -166 0 -5 10 -9 23 -9 18 0 26 10
40 50 l18 50 64 0 64 0 18 -50 c15 -43 21 -50 45 -50 l27 0 -24 63 c-95 252
-100 262 -127 265 -24 3 -29 -4 -87 -153z m108 35 c12 -30 21 -58 21 -62 0 -5
-21 -8 -46 -8 -33 0 -45 4 -42 13 3 6 13 36 23 65 9 29 18 52 20 50 2 -2 13
-28 24 -58z"/>
<path d="M3040 6075 c0 -158 1 -165 20 -165 19 0 20 7 20 165 0 158 -1 165
-20 165 -19 0 -20 -7 -20 -165z"/>
<path d="M3140 6210 c0 -23 4 -30 20 -30 16 0 20 7 20 30 0 23 -4 30 -20 30
-16 0 -20 -7 -20 -30z"/>
<path d="M3870 6210 c0 -23 4 -30 20 -30 16 0 20 7 20 30 0 23 -4 30 -20 30
-16 0 -20 -7 -20 -30z"/>
<path d="M4607 6233 c-4 -3 -7 -78 -7 -165 l0 -158 110 0 c103 0 110 1 110 20
0 18 -7 20 -85 20 l-85 0 0 145 c0 134 -1 145 -18 145 -10 0 -22 -3 -25 -7z"/>
<path d="M5830 6075 c0 -158 1 -165 20 -165 18 0 20 7 20 78 0 90 15 122 59
122 44 0 51 -16 51 -112 0 -81 2 -88 20 -88 19 0 20 7 20 100 0 87 -3 103 -20
120 -22 22 -78 27 -111 10 -18 -10 -19 -7 -19 45 0 48 -2 55 -20 55 -19 0 -20
-7 -20 -165z"/>
<path d="M11083 6183 c-24 -51 -28 -70 -28 -148 0 -79 4 -97 29 -148 25 -53
49 -77 62 -65 2 3 -5 26 -17 53 -42 94 -41 232 1 315 25 48 25 50 1 50 -14 0
-28 -17 -48 -57z"/>
<path d="M11180 6075 c0 -158 1 -165 20 -165 11 0 20 5 20 10 0 7 6 7 19 0 25
-13 87 -13 112 0 43 23 64 121 38 173 -26 51 -99 74 -150 47 -18 -10 -19 -7
-19 45 0 48 -2 55 -20 55 -19 0 -20 -7 -20 -165z m153 18 c23 -26 30 -65 17
-98 -14 -36 -26 -45 -66 -45 -38 0 -54 17 -61 67 -9 72 66 124 110 76z"/>
<path d="M11415 6224 c50 -117 58 -221 24 -314 -33 -89 -33 -90 -16 -90 23 0
55 59 74 135 14 55 14 77 5 128 -14 74 -51 151 -77 155 -14 3 -16 0 -10 -14z"/>
<path d="M11687 6233 c-4 -3 -7 -78 -7 -165 l0 -158 25 0 c24 0 25 2 25 70 l0
70 53 0 c73 0 94 -17 102 -85 7 -52 9 -55 36 -55 26 0 28 2 19 26 -6 14 -10
41 -10 60 0 20 -8 42 -19 53 -19 19 -19 20 -1 36 27 24 32 60 16 99 -11 27
-23 37 -53 45 -42 12 -176 15 -186 4z m190 -59 c18 -25 16 -41 -7 -64 -16 -16
-33 -20 -80 -20 l-60 0 0 56 0 57 67 -6 c48 -4 70 -10 80 -23z"/>
<path d="M12630 6210 c0 -23 4 -30 20 -30 16 0 20 7 20 30 0 23 -4 30 -20 30
-16 0 -20 -7 -20 -30z"/>
<path d="M3730 6185 c0 -28 -4 -35 -20 -35 -13 0 -20 -7 -20 -20 0 -13 7 -20
20 -20 18 0 20 -7 20 -88 0 -98 7 -112 57 -112 26 0 33 4 33 19 0 13 -8 21
-22 23 -22 3 -23 8 -23 78 0 70 1 75 23 78 32 5 30 42 -3 42 -22 0 -25 4 -25
35 0 28 -4 35 -20 35 -16 0 -20 -7 -20 -35z"/>
<path d="M12500 6185 c0 -28 -4 -35 -20 -35 -13 0 -20 -7 -20 -20 0 -13 7 -20
20 -20 18 0 20 -7 20 -88 0 -98 7 -112 57 -112 26 0 33 4 33 19 0 13 -8 21
-22 23 -22 3 -23 8 -23 78 0 70 1 75 23 78 32 5 30 42 -3 42 -22 0 -25 4 -25
35 0 28 -4 35 -20 35 -16 0 -20 -7 -20 -35z"/>
<path d="M1752 6133 c-11 -10 -23 -28 -27 -40 -5 -19 -3 -23 18 -23 16 0 26 7
30 20 4 16 14 20 46 20 29 0 43 -5 48 -16 8 -23 -18 -40 -71 -48 -24 -4 -52
-16 -62 -27 -23 -26 -23 -78 1 -95 22 -16 88 -18 115 -4 13 7 21 7 25 0 10
-17 65 -12 65 5 0 9 -7 18 -15 21 -12 5 -15 25 -15 89 0 67 -3 85 -18 98 -26
23 -113 23 -140 0z m118 -130 c0 -26 -12 -40 -43 -52 -34 -13 -70 2 -65 27 7
37 108 60 108 25z"/>
<path d="M2510 5985 c0 -158 1 -165 20 -165 18 0 20 7 20 55 0 52 1 55 19 45
25 -13 87 -13 112 0 43 23 64 121 38 173 -26 51 -99 74 -150 47 -13 -7 -19 -7
-19 0 0 5 -9 10 -20 10 -19 0 -20 -7 -20 -165z m153 108 c23 -26 30 -65 17
-98 -14 -36 -26 -45 -66 -45 -38 0 -54 17 -61 67 -9 72 66 124 110 76z"/>
<path d="M2770 5985 c0 -158 1 -165 20 -165 18 0 20 7 20 55 0 52 1 55 19 45
25 -13 87 -13 112 0 43 23 64 121 38 173 -26 51 -99 74 -150 47 -13 -7 -19 -7
-19 0 0 5 -9 10 -20 10 -19 0 -20 -7 -20 -165z m153 108 c23 -26 30 -65 17
-98 -14 -36 -26 -45 -66 -45 -38 0 -54 17 -61 67 -9 72 66 124 110 76z"/>
<path d="M3140 6030 c0 -113 1 -120 20 -120 19 0 20 7 20 120 0 113 -1 120
-20 120 -19 0 -20 -7 -20 -120z"/>
<path d="M3265 6128 c-51 -44 -52 -143 -3 -195 46 -49 154 -22 173 45 5 19 3
22 -19 22 -15 0 -26 -6 -26 -14 0 -41 -73 -52 -103 -15 -24 30 -19 106 9 126
27 20 72 16 86 -7 13 -21 58 -28 58 -9 0 6 -13 24 -29 40 -38 38 -106 41 -146
7z"/>
<path d="M3502 6133 c-11 -10 -23 -28 -27 -40 -5 -19 -3 -23 18 -23 16 0 26 7
30 20 4 16 14 20 46 20 29 0 43 -5 48 -16 8 -23 -18 -40 -71 -48 -24 -4 -52
-16 -62 -27 -23 -26 -23 -78 1 -95 22 -16 88 -18 115 -4 13 7 21 7 25 0 10
-17 65 -12 65 5 0 9 -7 18 -15 21 -12 5 -15 25 -15 89 0 67 -3 85 -18 98 -26
23 -113 23 -140 0z m118 -130 c0 -26 -12 -40 -43 -52 -34 -13 -70 2 -65 27 7
37 108 60 108 25z"/>
<path d="M3870 6030 c0 -113 1 -120 20 -120 19 0 20 7 20 120 0 113 -1 120
-20 120 -19 0 -20 -7 -20 -120z"/>
<path d="M3992 6120 c-33 -32 -43 -75 -31 -129 12 -54 49 -81 111 -81 43 0 54
4 79 31 24 26 29 40 29 81 0 86 -36 127 -112 128 -38 0 -52 -5 -76 -30z m121
-27 c39 -44 27 -127 -19 -139 -76 -19 -124 65 -73 130 24 31 68 35 92 9z"/>
<path d="M4220 6030 c0 -113 1 -120 20 -120 18 0 20 7 20 78 0 90 15 122 59
122 44 0 51 -16 51 -112 0 -81 2 -88 20 -88 19 0 20 7 20 100 0 87 -3 103 -20
120 -22 22 -78 27 -111 10 -13 -7 -19 -7 -19 0 0 5 -9 10 -20 10 -19 0 -20 -7
-20 -120z"/>
<path d="M4872 6133 c-11 -10 -23 -28 -27 -40 -5 -19 -3 -23 18 -23 16 0 26 7
30 20 4 16 14 20 46 20 29 0 43 -5 48 -16 8 -23 -18 -40 -71 -48 -24 -4 -52
-16 -62 -27 -23 -26 -23 -78 1 -95 22 -16 88 -18 115 -4 13 7 21 7 25 0 10
-17 65 -12 65 5 0 9 -7 18 -15 21 -12 5 -15 25 -15 89 0 67 -3 85 -18 98 -26
23 -113 23 -140 0z m118 -130 c0 -26 -12 -40 -43 -52 -34 -13 -70 2 -65 27 7
37 108 60 108 25z"/>
<path d="M5090 6052 c0 -120 11 -142 71 -142 22 0 49 5 60 10 13 7 19 7 19 0
0 -5 9 -10 20 -10 19 0 20 7 20 120 0 113 -1 120 -20 120 -18 0 -20 -7 -20
-79 0 -61 -4 -84 -18 -101 -21 -25 -69 -30 -83 -9 -5 8 -9 53 -9 102 0 80 -2
87 -20 87 -19 0 -20 -7 -20 -98z"/>
<path d="M5340 6030 c0 -113 1 -120 20 -120 18 0 20 7 20 78 0 90 15 122 59
122 44 0 51 -16 51 -112 0 -81 2 -88 20 -88 19 0 20 7 20 100 0 87 -3 103 -20
120 -22 22 -78 27 -111 10 -13 -7 -19 -7 -19 0 0 5 -9 10 -20 10 -19 0 -20 -7
-20 -120z"/>
<path d="M5615 6128 c-51 -44 -52 -143 -3 -195 46 -49 154 -22 173 45 5 19 3
22 -19 22 -15 0 -26 -6 -26 -14 0 -41 -73 -52 -103 -15 -24 30 -19 106 9 126
27 20 72 16 86 -7 13 -21 58 -28 58 -9 0 6 -13 24 -29 40 -38 38 -106 41 -146
7z"/>
<path d="M11990 6052 c0 -120 11 -142 71 -142 22 0 49 5 60 10 13 7 19 7 19 0
0 -5 9 -10 20 -10 19 0 20 7 20 120 0 113 -1 120 -20 120 -18 0 -20 -7 -20
-79 0 -61 -4 -84 -18 -101 -21 -25 -69 -30 -83 -9 -5 8 -9 53 -9 102 0 80 -2
87 -20 87 -19 0 -20 -7 -20 -98z"/>
<path d="M12240 6030 c0 -113 1 -120 20 -120 18 0 20 7 20 78 0 90 15 122 59
122 44 0 51 -16 51 -112 0 -81 2 -88 20 -88 19 0 20 7 20 100 0 87 -3 103 -20
120 -22 22 -78 27 -111 10 -13 -7 -19 -7 -19 0 0 5 -9 10 -20 10 -19 0 -20 -7
-20 -120z"/>
<path d="M12630 6030 c0 -113 1 -120 20 -120 19 0 20 7 20 120 0 113 -1 120
-20 120 -19 0 -20 -7 -20 -120z"/>
<path d="M12730 6030 c0 -113 1 -120 20 -120 18 0 20 7 20 83 0 90 13 117 56
117 36 0 44 -20 44 -112 0 -81 2 -88 20 -88 18 0 20 7 20 73 0 94 14 122 60
122 l35 0 3 -97 c3 -98 3 -98 28 -98 l26 0 -4 106 c-3 91 -6 108 -22 120 -26
18 -86 18 -113 -1 -18 -13 -22 -13 -33 0 -14 17 -72 20 -101 5 -13 -7 -19 -7
-19 0 0 5 -9 10 -20 10 -19 0 -20 -7 -20 -120z"/>
<path d="M13142 6121 c-35 -35 -44 -73 -32 -127 13 -55 49 -84 108 -84 26 0
52 4 58 8 13 9 44 54 44 64 0 17 -38 7 -52 -14 -20 -30 -75 -29 -100 1 -10 13
-18 27 -18 32 0 5 38 9 85 9 l85 0 0 30 c0 38 -24 86 -49 100 -11 5 -38 10
-60 10 -30 0 -46 -7 -69 -29z m112 -27 c32 -32 20 -44 -44 -44 -33 0 -60 3
-60 8 0 4 7 18 16 30 18 26 65 30 88 6z"/>
<path d="M1173 5694 c-10 -26 16 -34 107 -34 91 0 117 8 107 34 -5 13 -24 16
-107 16 -83 0 -102 -3 -107 -16z"/>
<path d="M1533 5694 c-10 -26 16 -34 107 -34 91 0 117 8 107 34 -5 13 -24 16
-107 16 -83 0 -102 -3 -107 -16z"/>
<path d="M1893 5694 c-10 -26 16 -34 107 -34 91 0 117 8 107 34 -5 13 -24 16
-107 16 -83 0 -102 -3 -107 -16z"/>
<path d="M2253 5694 c-10 -26 16 -34 107 -34 91 0 117 8 107 34 -5 13 -24 16
-107 16 -83 0 -102 -3 -107 -16z"/>
<path d="M2613 5694 c-10 -26 16 -34 107 -34 91 0 117 8 107 34 -5 13 -24 16
-107 16 -83 0 -102 -3 -107 -16z"/>
<path d="M2973 5694 c-10 -26 16 -34 107 -34 91 0 117 8 107 34 -5 13 -24 16
-107 16 -83 0 -102 -3 -107 -16z"/>
<path d="M3333 5694 c-10 -26 16 -34 107 -34 91 0 117 8 107 34 -5 13 -24 16
-107 16 -83 0 -102 -3 -107 -16z"/>
<path d="M3693 5694 c-10 -26 16 -34 107 -34 91 0 117 8 107 34 -5 13 -24 16
-107 16 -83 0 -102 -3 -107 -16z"/>
<path d="M4051 5696 c-20 -24 18 -36 111 -36 89 0 115 9 105 34 -9 22 -198 24
-216 2z"/>
<path d="M4411 5696 c-20 -24 18 -36 111 -36 89 0 115 9 105 34 -9 22 -198 24
-216 2z"/>
<path d="M4771 5696 c-20 -24 18 -36 111 -36 89 0 115 9 105 34 -9 22 -198 24
-216 2z"/>
<path d="M5131 5696 c-20 -24 18 -36 111 -36 89 0 115 9 105 34 -9 22 -198 24
-216 2z"/>
<path d="M5491 5696 c-20 -24 18 -36 111 -36 89 0 115 9 105 34 -9 22 -198 24
-216 2z"/>
<path d="M5851 5696 c-20 -24 18 -36 111 -36 89 0 115 9 105 34 -9 22 -198 24
-216 2z"/>
<path d="M6211 5696 c-20 -24 18 -36 111 -36 89 0 115 9 105 34 -9 22 -198 24
-216 2z"/>
<path d="M9024 5685 c-11 -29 7 -35 105 -35 101 0 131 10 110 37 -17 20 -208
18 -215 -2z"/>
<path d="M9393 5693 c-18 -7 -16 -30 3 -37 9 -3 55 -6 103 -6 91 0 121 11 100
37 -8 9 -38 13 -103 12 -50 0 -97 -3 -103 -6z"/>
<path d="M9753 5693 c-18 -7 -16 -30 3 -37 9 -3 55 -6 103 -6 91 0 121 11 100
37 -8 9 -38 13 -103 12 -50 0 -97 -3 -103 -6z"/>
<path d="M10113 5693 c-18 -7 -16 -30 3 -37 9 -3 55 -6 103 -6 91 0 121 11
100 37 -8 9 -38 13 -103 12 -50 0 -97 -3 -103 -6z"/>
<path d="M10473 5693 c-18 -7 -16 -30 3 -37 9 -3 55 -6 103 -6 91 0 121 11
100 37 -8 9 -38 13 -103 12 -50 0 -97 -3 -103 -6z"/>
<path d="M10833 5693 c-18 -7 -16 -30 3 -37 9 -3 55 -6 103 -6 91 0 121 11
100 37 -8 9 -38 13 -103 12 -50 0 -97 -3 -103 -6z"/>
<path d="M11193 5693 c-18 -7 -16 -30 3 -37 9 -3 55 -6 103 -6 91 0 121 11
100 37 -8 9 -38 13 -103 12 -50 0 -97 -3 -103 -6z"/>
<path d="M11553 5693 c-18 -7 -16 -30 3 -37 9 -3 55 -6 103 -6 91 0 121 11
100 37 -8 9 -38 13 -103 12 -50 0 -97 -3 -103 -6z"/>
<path d="M11913 5693 c-18 -7 -16 -30 3 -37 9 -3 55 -6 103 -6 91 0 121 11
100 37 -8 9 -38 13 -103 12 -50 0 -97 -3 -103 -6z"/>
<path d="M12273 5693 c-18 -7 -16 -30 3 -37 9 -3 55 -6 103 -6 91 0 121 11
100 37 -8 9 -38 13 -103 12 -50 0 -97 -3 -103 -6z"/>
<path d="M12633 5693 c-18 -7 -16 -30 3 -37 9 -3 55 -6 103 -6 91 0 121 11
100 37 -8 9 -38 13 -103 12 -50 0 -97 -3 -103 -6z"/>
<path d="M12993 5693 c-18 -7 -16 -30 3 -37 9 -3 55 -6 103 -6 91 0 121 11
100 37 -8 9 -38 13 -103 12 -50 0 -97 -3 -103 -6z"/>
<path d="M13353 5693 c-18 -7 -16 -30 3 -37 9 -3 55 -6 103 -6 91 0 121 11
100 37 -8 9 -38 13 -103 12 -50 0 -97 -3 -103 -6z"/>
<path d="M13713 5694 c-21 -9 -15 -33 10 -39 12 -3 60 -5 107 -3 77 3 85 5 85
23 0 18 -7 20 -95 22 -52 1 -101 -1 -107 -3z"/>
<path d="M14073 5694 c-21 -9 -15 -33 10 -39 12 -3 60 -5 107 -3 77 3 85 5 85
23 0 18 -7 20 -95 22 -52 1 -101 -1 -107 -3z"/>
<path d="M14433 5694 c-21 -9 -15 -33 10 -39 12 -3 60 -5 107 -3 77 3 85 5 85
23 0 18 -7 20 -95 22 -52 1 -101 -1 -107 -3z"/>
<path d="M14793 5694 c-21 -9 -15 -33 10 -39 12 -3 60 -5 107 -3 77 3 85 5 85
23 0 18 -7 20 -95 22 -52 1 -101 -1 -107 -3z"/>
<path d="M15153 5694 c-21 -9 -15 -33 10 -39 12 -3 60 -5 107 -3 77 3 85 5 85
23 0 18 -7 20 -95 22 -52 1 -101 -1 -107 -3z"/>
<path d="M6565 5680 c-10 -16 0 -24 75 -55 36 -15 77 -32 92 -38 15 -6 30 -8
34 -4 15 15 -10 40 -68 67 -77 36 -123 46 -133 30z"/>
<path d="M960 5654 c-30 -14 -70 -37 -88 -51 -31 -23 -32 -27 -18 -41 13 -13
17 -13 32 -1 9 7 48 30 88 50 106 53 93 93 -14 43z"/>
<path d="M8767 5640 c-89 -38 -103 -49 -84 -67 13 -13 20 -12 53 5 22 10 62
27 91 36 28 9 54 23 56 31 14 34 -28 33 -116 -5z"/>
<path d="M15507 5663 c-18 -17 -2 -33 48 -52 31 -12 73 -30 94 -41 33 -16 41
-17 50 -6 17 20 -6 39 -93 75 -79 33 -89 35 -99 24z"/>
<path d="M6865 5491 c-3 -5 22 -40 55 -77 33 -38 60 -72 60 -76 0 -11 37 -10
44 1 6 9 -15 38 -79 114 -37 44 -67 58 -80 38z"/>
<path d="M8466 5439 c-63 -58 -84 -99 -50 -99 19 0 154 129 154 147 0 29 -41
10 -104 -48z"/>
<path d="M15810 5477 c0 -18 135 -147 154 -147 34 0 14 40 -49 99 -62 57 -105
77 -105 48z"/>
<path d="M660 5400 c-53 -67 -66 -100 -44 -107 13 -4 134 141 134 162 0 35
-39 11 -90 -55z"/>
<path d="M1762 5063 l3 -398 779 -5 778 -5 -108 -93 -108 -94 -26 31 c-14 17
-28 31 -31 31 -9 0 -151 -261 -146 -267 4 -3 278 95 286 103 3 2 -8 17 -22 32
-15 16 -27 31 -27 34 0 3 48 47 108 98 59 51 114 101 124 112 15 17 41 18 454
18 354 0 439 -3 448 -13 6 -8 62 -58 124 -111 61 -54 112 -100 112 -104 0 -3
-12 -18 -27 -34 -14 -15 -25 -29 -22 -32 9 -8 282 -107 286 -103 5 5 -137 267
-145 267 -3 0 -17 -14 -31 -31 l-26 -30 -108 93 -109 93 773 3 c550 1 776 5
786 13 10 9 13 84 13 384 0 206 -3 380 -6 389 -6 15 -197 16 -2070 16 l-2064
0 2 -397z m4088 2 l0 -355 -2025 0 -2025 0 0 355 0 355 2025 0 2025 0 0 -355z"/>
<path d="M2806 5073 c-31 -82 -56 -152 -56 -156 0 -5 10 -7 22 -5 15 2 26 16
37 46 l15 43 65 -3 64 -3 15 -42 c11 -35 18 -43 38 -43 13 0 24 3 24 7 0 3
-26 73 -57 155 -54 138 -60 148 -84 148 -24 0 -30 -10 -83 -147z m108 30 c9
-26 16 -50 16 -55 0 -4 -20 -8 -44 -8 l-45 0 21 60 c11 33 24 58 28 55 4 -3
15 -26 24 -52z"/>
<path d="M3560 5065 c0 -148 1 -155 20 -155 19 0 20 7 20 155 0 148 -1 155
-20 155 -19 0 -20 -7 -20 -155z"/>
<path d="M3660 5195 c0 -18 5 -25 20 -25 15 0 20 7 20 25 0 18 -5 25 -20 25
-15 0 -20 -7 -20 -25z"/>
<path d="M4350 5195 c0 -18 5 -25 20 -25 15 0 20 7 20 25 0 18 -5 25 -20 25
-15 0 -20 -7 -20 -25z"/>
<path d="M4220 5170 c0 -23 -4 -30 -20 -30 -13 0 -20 -7 -20 -20 0 -13 7 -20
20 -20 18 0 20 -7 20 -83 0 -91 8 -107 52 -107 21 0 28 5 28 20 0 13 -7 20
-20 20 -18 0 -20 7 -20 75 0 68 2 75 20 75 13 0 20 7 20 20 0 13 -7 20 -20 20
-16 0 -20 7 -20 30 0 23 -4 30 -20 30 -16 0 -20 -7 -20 -30z"/>
<path d="M3050 4985 c0 -148 1 -155 20 -155 17 0 20 7 20 52 0 40 3 49 12 40
15 -15 82 -16 109 -2 42 23 60 95 39 157 -18 50 -92 79 -140 53 -13 -7 -21 -7
-25 0 -3 5 -13 10 -21 10 -12 0 -14 -27 -14 -155z m146 94 c22 -24 24 -94 3
-114 -45 -42 -109 -11 -109 54 0 73 62 108 106 60z"/>
<path d="M3310 4985 c0 -148 1 -155 20 -155 17 0 20 7 20 52 0 40 3 49 12 40
15 -15 82 -16 109 -2 42 23 60 95 39 157 -18 50 -92 79 -140 53 -13 -7 -21 -7
-25 0 -3 5 -13 10 -21 10 -12 0 -14 -27 -14 -155z m146 94 c22 -24 24 -94 3
-114 -45 -42 -109 -11 -109 54 0 73 62 108 106 60z"/>
<path d="M3660 5026 c0 -110 1 -116 20 -116 20 0 21 5 18 112 -3 98 -5 113
-20 116 -16 3 -18 -7 -18 -112z"/>
<path d="M3777 5119 c-55 -42 -56 -158 -2 -193 37 -24 107 -21 132 7 11 12 24
32 28 45 9 32 -32 31 -47 -2 -6 -14 -17 -27 -25 -30 -23 -9 -63 4 -73 24 -15
28 -12 83 6 108 20 29 69 30 86 2 18 -28 58 -27 51 0 -15 56 -106 79 -156 39z"/>
<path d="M4002 5123 c-11 -10 -23 -28 -27 -40 -5 -19 -2 -23 14 -23 11 0 25 9
31 21 16 28 85 24 85 -6 0 -16 -12 -23 -60 -35 -48 -12 -62 -21 -73 -43 -11
-22 -11 -32 0 -54 11 -24 20 -28 61 -31 30 -2 55 2 64 10 13 10 17 10 20 1 6
-18 63 -17 63 1 0 8 -7 16 -15 20 -12 4 -15 23 -15 85 0 71 -2 82 -22 95 -30
22 -101 21 -126 -1z m106 -130 c-6 -50 -98 -71 -98 -23 0 22 11 30 54 41 47
11 48 11 44 -18z"/>
<path d="M4350 5026 c0 -110 1 -116 20 -116 20 0 21 5 18 112 -3 98 -5 113
-20 116 -16 3 -18 -7 -18 -112z"/>
<path d="M4467 5119 c-52 -40 -55 -133 -5 -186 17 -18 32 -23 71 -23 42 0 53
4 78 31 49 52 38 148 -21 182 -38 23 -92 21 -123 -4z m107 -35 c38 -37 29
-108 -17 -134 -24 -13 -28 -13 -54 6 -55 41 -36 144 27 144 15 0 36 -7 44 -16z"/>
<path d="M4684 5127 c-2 -7 -3 -58 -2 -113 3 -94 4 -99 26 -102 21 -3 22 -1
22 77 0 86 12 111 54 111 38 0 46 -19 46 -107 0 -76 2 -83 20 -83 19 0 20 7
20 95 0 82 -3 98 -20 115 -24 24 -77 26 -108 4 -20 -14 -22 -14 -22 0 0 19
-29 21 -36 3z"/>
<path d="M10120 5269 l0 -190 -22 7 c-13 4 -75 26 -138 50 -63 24 -121 44
-127 44 -8 0 -13 -15 -13 -40 l0 -40 -614 0 c-525 0 -615 -2 -626 -15 -6 -8
-9 -19 -5 -25 4 -7 206 -10 626 -10 l619 0 0 -39 c0 -22 3 -42 8 -44 4 -3 65
17 136 44 70 27 134 49 142 49 11 0 14 -39 16 -197 l3 -198 2060 0 2060 0 3
193 2 192 620 0 619 0 3 -44 3 -43 137 51 c75 29 140 54 143 57 4 5 -261 109
-278 109 -4 0 -7 -18 -7 -40 l0 -40 -620 0 -620 0 0 180 0 180 -2065 0 -2065
0 0 -191z m4090 -204 l0 -355 -2025 0 -2025 0 0 355 0 355 2025 0 2025 0 0
-355z"/>
<path d="M12186 5220 c-101 -32 -135 -192 -58 -273 67 -70 193 -51 233 36 34
76 15 177 -41 217 -33 23 -94 33 -134 20z m110 -64 c31 -31 34 -40 34 -91 0
-51 -3 -60 -34 -91 -19 -19 -43 -34 -54 -34 -91 0 -143 114 -92 198 37 60 96
68 146 18z"/>
<path d="M10432 5103 c51 -206 46 -193 73 -193 26 0 22 -9 65 153 13 50 26 83
30 75 4 -7 20 -62 35 -121 27 -103 30 -108 53 -105 23 3 28 14 63 143 45 167
45 167 17 163 -22 -3 -21 2 -73 -213 -6 -26 -12 -14 -39 90 -30 111 -34 120
-57 123 -27 3 -24 11 -80 -198 l-11 -45 -24 100 c-13 55 -26 110 -29 123 -4
15 -13 22 -29 22 l-24 0 30 -117z"/>
<path d="M10820 5195 c0 -18 5 -25 20 -25 15 0 20 7 20 25 0 18 -5 25 -20 25
-15 0 -20 -7 -20 -25z"/>
<path d="M11320 5169 c0 -45 -2 -50 -17 -43 -42 18 -88 16 -115 -6 -53 -41
-56 -143 -6 -190 24 -22 86 -27 119 -10 13 7 19 7 19 0 0 -5 9 -10 20 -10 19
0 20 7 20 155 0 148 -1 155 -20 155 -17 0 -20 -7 -20 -51z m-28 -86 c24 -29
29 -54 17 -90 -24 -74 -110 -58 -117 21 -4 50 20 86 57 86 15 0 35 -8 43 -17z"/>
<path d="M13410 5195 c0 -18 5 -25 20 -25 15 0 20 7 20 25 0 18 -5 25 -20 25
-15 0 -20 -7 -20 -25z"/>
<path d="M13290 5170 c0 -23 -4 -30 -20 -30 -13 0 -20 -7 -20 -20 0 -13 7 -20
20 -20 18 0 20 -7 20 -83 0 -91 8 -107 52 -107 21 0 28 5 28 20 0 13 -7 20
-20 20 -18 0 -20 7 -20 75 0 68 2 75 20 75 13 0 20 7 20 20 0 13 -7 20 -20 20
-16 0 -20 7 -20 30 0 23 -4 30 -20 30 -16 0 -20 -7 -20 -30z"/>
<path d="M10820 5026 c0 -110 1 -116 20 -116 20 0 21 5 18 112 -3 98 -5 113
-20 116 -16 3 -18 -7 -18 -112z"/>
<path d="M10914 5127 c-2 -7 -3 -58 -2 -113 3 -94 4 -99 26 -102 21 -3 22 -1
22 77 0 86 12 111 54 111 38 0 46 -19 46 -107 0 -76 2 -83 20 -83 19 0 20 7
20 95 0 82 -3 98 -20 115 -24 24 -77 26 -108 4 -20 -14 -22 -14 -22 0 0 19
-29 21 -36 3z"/>
<path d="M11437 5119 c-52 -40 -55 -133 -5 -186 17 -18 32 -23 71 -23 42 0 53
4 78 31 49 52 38 148 -21 182 -38 23 -92 21 -123 -4z m107 -35 c38 -37 29
-108 -17 -134 -24 -13 -28 -13 -54 6 -55 41 -36 144 27 144 15 0 36 -7 44 -16z"/>
<path d="M11640 5130 c0 -6 14 -58 32 -115 28 -93 35 -105 55 -105 18 0 24 8
33 43 6 23 16 60 22 82 l11 40 21 -82 c18 -74 22 -83 43 -83 20 0 26 12 54
103 18 56 34 108 37 115 3 10 -2 13 -19 10 -20 -3 -26 -14 -43 -80 -12 -43
-23 -78 -26 -78 -3 0 -14 35 -25 78 -17 63 -24 78 -41 80 -19 3 -24 -6 -39
-70 -23 -95 -30 -109 -38 -69 -19 92 -39 141 -58 141 -10 0 -19 -5 -19 -10z"/>
<path d="M12420 4985 c0 -148 1 -155 20 -155 17 0 20 7 20 52 0 40 3 49 12 40
15 -15 82 -16 109 -2 42 23 60 95 39 157 -18 50 -92 79 -140 53 -13 -7 -21 -7
-25 0 -3 5 -13 10 -21 10 -12 0 -14 -27 -14 -155z m146 94 c22 -24 24 -94 3
-114 -45 -42 -109 -11 -109 54 0 73 62 108 106 60z"/>
<path d="M12707 5120 c-35 -27 -50 -83 -36 -132 14 -54 44 -78 95 -78 57 0 72
7 90 41 13 26 13 30 -1 35 -10 4 -25 -4 -41 -21 -20 -21 -30 -26 -52 -20 -29
6 -52 30 -52 52 0 10 21 13 81 13 l82 0 -6 37 c-9 52 -51 93 -98 93 -21 0 -47
-8 -62 -20z m111 -47 l14 -23 -61 0 c-33 0 -61 3 -61 7 0 3 8 15 17 25 23 25
71 20 91 -9z"/>
<path d="M12907 5133 c-4 -3 -7 -55 -7 -115 0 -99 2 -108 19 -108 15 0 19 10
24 68 7 86 12 98 48 111 19 7 29 17 29 30 0 28 -27 27 -57 -1 l-23 -21 0 21
c0 21 -19 30 -33 15z"/>
<path d="M13072 5123 c-11 -10 -23 -28 -27 -40 -5 -19 -2 -23 14 -23 11 0 25
9 31 21 16 28 85 24 85 -6 0 -16 -12 -23 -60 -35 -48 -12 -62 -21 -73 -43 -11
-22 -11 -32 0 -54 11 -24 20 -28 61 -31 30 -2 55 2 64 10 13 10 17 10 20 1 6
-18 63 -17 63 1 0 8 -7 16 -15 20 -12 4 -15 23 -15 85 0 71 -2 82 -22 95 -30
22 -101 21 -126 -1z m106 -130 c-6 -50 -98 -71 -98 -23 0 22 11 30 54 41 47
11 48 11 44 -18z"/>
<path d="M13410 5026 c0 -110 1 -116 20 -116 20 0 21 5 18 112 -3 98 -5 113
-20 116 -16 3 -18 -7 -18 -112z"/>
<path d="M13537 5119 c-52 -40 -55 -133 -5 -186 17 -18 32 -23 71 -23 42 0 53
4 78 31 49 52 38 148 -21 182 -38 23 -92 21 -123 -4z m107 -35 c38 -37 29
-108 -17 -134 -24 -13 -28 -13 -54 6 -55 41 -36 144 27 144 15 0 36 -7 44 -16z"/>
<path d="M13744 5127 c-2 -7 -3 -58 -2 -113 3 -94 4 -99 26 -102 21 -3 22 -1
22 77 0 86 12 111 54 111 38 0 46 -19 46 -107 0 -76 2 -83 20 -83 19 0 20 7
20 95 0 82 -3 98 -20 115 -24 24 -77 26 -108 4 -20 -14 -22 -14 -22 0 0 19
-29 21 -36 3z"/>
<path d="M8258 5193 c-77 -109 -90 -143 -54 -143 17 0 124 161 119 178 -9 24
-32 11 -65 -35z"/>
<path d="M16055 5220 c-9 -15 97 -179 116 -180 38 -1 34 14 -39 123 -43 64
-63 79 -77 57z"/>
<path d="M7084 5207 c-7 -18 84 -187 101 -187 27 0 25 21 -11 92 -50 100 -77
128 -90 95z"/>
<path d="M471 5107 c-46 -83 -54 -119 -30 -125 11 -2 29 23 63 88 25 51 44 96
41 101 -15 23 -37 4 -74 -64z"/>
<path d="M8059 4846 c-43 -93 -48 -116 -21 -116 12 0 30 27 59 91 24 51 40 96
37 100 -15 26 -38 3 -75 -75z"/>
<path d="M8372 4908 c-9 -9 -12 -74 -12 -233 0 -159 3 -224 12 -233 17 -17
449 -17 466 0 17 17 17 449 0 466 -17 17 -449 17 -466 0z m388 -233 l0 -155
-155 0 -155 0 0 155 0 155 155 0 155 0 0 -155z"/>
<path d="M8892 4908 c-9 -9 -12 -74 -12 -233 0 -159 3 -224 12 -233 17 -17
449 -17 466 0 17 17 17 449 0 466 -17 17 -449 17 -466 0z m388 -233 l0 -155
-155 0 -155 0 0 155 0 155 155 0 155 0 0 -155z"/>
<path d="M9412 4908 c-9 -9 -12 -74 -12 -233 0 -159 3 -224 12 -233 17 -17
449 -17 466 0 17 17 17 449 0 466 -17 17 -449 17 -466 0z m388 -233 l0 -155
-155 0 -155 0 0 155 0 155 155 0 155 0 0 -155z"/>
<path d="M14492 4908 c-9 -9 -12 -74 -12 -233 0 -159 3 -224 12 -233 17 -17
449 -17 466 0 17 17 17 449 0 466 -17 17 -449 17 -466 0z m388 -233 l0 -155
-155 0 -155 0 0 155 0 155 155 0 155 0 0 -155z"/>
<path d="M15012 4908 c-9 -9 -12 -74 -12 -233 0 -159 3 -224 12 -233 17 -17
449 -17 466 0 17 17 17 449 0 466 -17 17 -449 17 -466 0z m388 -233 l0 -155
-155 0 -155 0 0 155 0 155 155 0 155 0 0 -155z"/>
<path d="M15532 4908 c-9 -9 -12 -74 -12 -233 0 -159 3 -224 12 -233 17 -17
449 -17 466 0 17 17 17 449 0 466 -17 17 -449 17 -466 0z m388 -233 l0 -155
-155 0 -155 0 0 155 0 155 155 0 155 0 0 -155z"/>
<path d="M16245 4908 c-6 -15 67 -182 83 -192 6 -3 15 1 21 8 10 12 3 33 -31
103 -42 86 -63 108 -73 81z"/>
<path d="M7240 4878 c0 -20 63 -183 74 -190 6 -4 16 -2 22 3 10 8 8 22 -6 62
-38 111 -52 137 -71 137 -10 0 -19 -5 -19 -12z"/>
<path d="M359 4847 c-8 -8 -27 -53 -44 -100 -23 -68 -26 -90 -17 -99 19 -19
32 1 68 102 26 72 29 91 19 100 -9 8 -17 7 -26 -3z"/>
<path d="M12129 4504 l-56 -149 44 -3 43 -3 0 -65 0 -64 -44 0 -44 0 27 -72
c16 -40 40 -106 56 -146 15 -40 29 -71 32 -69 2 3 28 68 58 146 l53 141 -44 0
-44 0 0 64 0 65 44 3 43 3 -48 130 c-27 72 -53 138 -57 149 -6 14 -22 -19 -63
-130z"/>
<path d="M7941 4558 c-53 -124 -59 -181 -19 -166 13 5 68 159 68 191 0 33 -31
17 -49 -25z"/>
<path d="M16385 4580 c-4 -6 8 -53 25 -105 25 -76 35 -95 51 -95 27 0 24 24
-12 124 -29 80 -48 102 -64 76z"/>
<path d="M7363 4544 c-3 -8 6 -56 19 -107 20 -75 28 -92 44 -92 23 0 22 18 -7
127 -20 74 -43 104 -56 72z"/>
<path d="M231 4478 c-28 -90 -42 -161 -32 -171 21 -21 37 5 59 94 27 113 27
109 3 109 -13 0 -23 -11 -30 -32z"/>
<path d="M14141 4320 c-46 -11 -74 -42 -74 -81 0 -43 34 -72 105 -87 69 -16
96 -41 80 -77 -23 -50 -123 -42 -147 13 -13 30 -45 29 -45 -1 0 -32 41 -68 87
-76 102 -19 177 45 147 124 -8 21 -50 42 -110 55 -27 6 -54 16 -61 22 -20 16
-16 45 9 62 34 24 67 19 98 -14 15 -16 35 -30 44 -30 19 0 19 1 6 34 -17 45
-78 70 -139 56z"/>
<path d="M12500 4165 c0 -147 1 -155 20 -155 17 0 19 8 22 68 l3 67 73 3 c63
2 73 5 70 20 -3 14 -17 18 -76 20 l-72 3 0 44 0 45 80 0 c73 0 80 2 80 20 0
19 -7 20 -100 20 l-100 0 0 -155z"/>
<path d="M12740 4165 c0 -148 1 -155 20 -155 19 0 20 7 20 155 0 148 -1 155
-20 155 -19 0 -20 -7 -20 -155z"/>
<path d="M13410 4165 c0 -148 1 -155 20 -155 17 0 20 7 20 46 0 51 12 79 39
93 16 9 26 0 71 -64 46 -65 57 -75 83 -75 l29 0 -24 33 c-13 17 -44 58 -68 90
l-43 58 58 59 c33 33 62 56 66 52 3 -4 28 -71 55 -149 45 -133 51 -143 74
-143 23 0 29 11 78 148 28 81 52 151 52 156 0 4 -10 6 -22 4 -18 -2 -28 -23
-64 -128 -47 -142 -39 -144 -95 28 l-33 102 -51 0 c-49 0 -52 -2 -120 -70 -38
-38 -73 -70 -77 -70 -5 0 -8 32 -8 70 0 63 -2 70 -20 70 -19 0 -20 -7 -20
-155z"/>
<path d="M15238 4172 c-32 -82 -58 -152 -58 -156 0 -4 10 -6 22 -4 15 2 25 15
36 46 l14 43 66 -3 67 -3 15 -42 c11 -34 19 -43 38 -43 28 0 30 -11 -41 170
-46 119 -55 135 -77 138 -23 2 -29 -7 -82 -146z m106 34 c9 -27 16 -53 16 -58
0 -4 -21 -8 -46 -8 -33 0 -44 4 -41 13 3 6 14 36 23 65 10 29 21 49 25 45 3
-5 14 -30 23 -57z"/>
<path d="M15490 4165 c0 -147 1 -155 20 -155 16 0 19 8 22 63 l3 62 72 3 c64
3 75 6 93 29 21 27 27 82 10 113 -14 26 -63 40 -146 40 l-74 0 0 -155z m175
95 c24 -26 13 -68 -22 -81 -15 -5 -45 -9 -67 -7 l-41 3 -3 53 -3 52 59 0 c46
0 63 -4 77 -20z"/>
<path d="M15770 4165 l0 -155 25 0 25 0 0 155 0 155 -25 0 -25 0 0 -155z"/>
<path d="M14360 4265 c0 -28 -4 -35 -20 -35 -11 0 -20 -7 -20 -15 0 -8 9 -15
20 -15 18 0 20 -7 20 -83 0 -91 8 -107 52 -107 21 0 28 5 28 20 0 13 -7 20
-20 20 -18 0 -20 7 -20 75 0 68 2 75 20 75 11 0 20 7 20 15 0 8 -9 15 -20 15
-16 0 -20 7 -20 35 0 28 -4 35 -20 35 -16 0 -20 -7 -20 -35z"/>
<path d="M7841 4238 c-5 -13 -17 -58 -27 -101 -14 -60 -15 -80 -6 -89 9 -9 15
-9 23 -1 13 13 60 194 53 205 -10 16 -35 8 -43 -14z"/>
<path d="M607 4243 c-4 -3 -7 -311 -7 -684 0 -608 2 -677 16 -683 9 -3 517 -6
1130 -6 1047 0 1115 -1 1132 -17 10 -10 66 -60 125 -111 l107 -93 -26 -35
c-15 -19 -25 -36 -23 -38 9 -7 284 -105 286 -102 5 5 -138 266 -145 266 -3 0
-18 -12 -33 -26 -32 -31 -24 -35 -152 76 l-87 75 318 5 c174 3 323 9 330 13 9
6 12 154 12 682 0 604 -2 673 -16 679 -22 8 -2959 8 -2967 -1z m2933 -683 l0
-640 -1450 0 -1450 0 0 640 0 640 1450 0 1450 0 0 -640z"/>
<path d="M1272 3973 c-32 -80 -92 -247 -92 -254 0 -5 8 -9 18 -9 13 0 22 12
31 40 l12 40 58 0 58 0 12 -40 c9 -29 17 -40 31 -40 11 0 20 3 20 6 0 6 -75
215 -95 267 -11 26 -41 21 -53 -10z m47 -90 l21 -53 -41 0 c-31 0 -40 3 -36
14 3 8 11 32 18 55 7 23 13 40 15 39 1 -2 12 -27 23 -55z"/>
<path d="M2680 3945 c0 -16 -6 -25 -15 -25 -8 0 -15 -7 -15 -15 0 -8 7 -15 15
-15 12 0 15 -15 15 -79 0 -89 9 -104 61 -99 43 4 51 28 10 28 l-31 0 0 75 c0
73 1 75 25 75 16 0 25 6 25 15 0 9 -9 15 -25 15 -20 0 -25 5 -25 25 0 18 -5
25 -20 25 -15 0 -20 -7 -20 -25z"/>
<path d="M1492 3920 c-33 -14 -46 -55 -28 -91 9 -19 11 -31 4 -35 -5 -4 -8
-17 -5 -30 2 -13 -2 -29 -9 -35 -21 -17 -17 -57 7 -70 13 -6 49 -9 85 -7 68 4
93 21 94 64 0 31 -22 45 -84 51 -64 7 -76 23 -17 23 50 0 86 39 77 82 -4 21
-2 28 9 28 8 0 15 7 15 15 0 12 -13 15 -62 14 -35 0 -73 -4 -86 -9z m82 -42
c23 -37 -35 -76 -70 -48 -18 16 -18 35 2 55 20 20 53 16 68 -7z m21 -158 c13
-21 -17 -40 -61 -40 -45 0 -60 11 -50 35 6 18 101 21 111 5z"/>
<path d="M1712 3920 c-33 -14 -46 -55 -28 -91 9 -19 11 -31 4 -35 -5 -4 -8
-17 -5 -30 2 -13 -2 -29 -9 -35 -21 -17 -17 -57 7 -70 13 -6 49 -9 85 -7 68 4
93 21 94 64 0 31 -22 45 -84 51 -64 7 -76 23 -17 23 50 0 86 39 77 82 -4 21
-2 28 9 28 8 0 15 7 15 15 0 12 -13 15 -62 14 -35 0 -73 -4 -86 -9z m82 -42
c23 -37 -35 -76 -70 -48 -18 16 -18 35 2 55 20 20 53 16 68 -7z m21 -158 c13
-21 -17 -40 -61 -40 -45 0 -60 11 -50 35 6 18 101 21 111 5z"/>
<path d="M1955 3920 c-11 -4 -30 -6 -42 -3 -23 5 -23 4 -23 -101 0 -99 1 -106
20 -106 18 0 20 7 20 84 0 88 4 96 51 96 12 0 19 7 19 20 0 21 -12 24 -45 10z"/>
<path d="M2084 3920 c-36 -14 -54 -50 -54 -105 0 -61 19 -91 64 -104 43 -11
100 0 104 20 2 13 -5 15 -46 11 -53 -5 -82 12 -82 49 0 17 8 19 71 19 l72 0
-6 38 c-11 63 -65 96 -123 72z m66 -40 c31 -31 24 -40 -30 -40 -56 0 -67 17
-28 44 29 20 34 20 58 -4z"/>
<path d="M2292 3920 c-33 -14 -46 -55 -28 -91 9 -19 11 -31 4 -35 -5 -4 -8
-17 -5 -30 2 -13 -2 -29 -9 -35 -21 -17 -17 -57 7 -70 13 -6 49 -9 85 -7 68 4
93 21 94 64 0 31 -22 45 -84 51 -64 7 -76 23 -17 23 50 0 86 39 77 82 -4 21
-2 28 9 28 8 0 15 7 15 15 0 12 -13 15 -62 14 -35 0 -73 -4 -86 -9z m82 -42
c23 -37 -35 -76 -70 -48 -18 16 -18 35 2 55 20 20 53 16 68 -7z m21 -158 c13
-21 -17 -40 -61 -40 -45 0 -60 11 -50 35 6 18 101 21 111 5z"/>
<path d="M2488 3923 c-30 -8 -22 -35 10 -33 56 4 70 0 75 -22 7 -26 -7 -38
-44 -38 -38 0 -71 -31 -71 -64 0 -36 23 -59 59 -58 15 0 43 1 61 2 l32 1 0 94
c0 86 -2 95 -22 109 -21 15 -63 19 -100 9z m90 -154 c-2 -20 -10 -25 -39 -27
-62 -5 -62 52 -1 60 34 5 45 -4 40 -33z"/>
<path d="M2864 3920 c-36 -14 -54 -50 -54 -105 0 -61 19 -91 64 -104 43 -11
100 0 104 20 2 13 -5 15 -46 11 -53 -5 -82 12 -82 49 0 17 8 19 71 19 l72 0
-6 38 c-11 63 -65 96 -123 72z m66 -40 c31 -31 24 -40 -30 -40 -56 0 -67 17
-28 44 29 20 34 20 58 -4z"/>
<path d="M1347 3473 c-4 -3 -7 -69 -7 -145 0 -130 1 -138 20 -138 16 0 19 8
22 63 l3 62 53 3 c37 2 52 7 52 18 0 10 -14 14 -56 14 l-55 0 3 48 3 47 68 3
c51 2 67 6 67 17 0 12 -17 15 -83 15 -46 0 -87 -3 -90 -7z"/>
<path d="M2340 3460 c0 -13 7 -20 20 -20 13 0 20 7 20 20 0 13 -7 20 -20 20
-13 0 -20 -7 -20 -20z"/>
<path d="M2200 3425 c0 -16 -6 -25 -15 -25 -8 0 -15 -7 -15 -15 0 -8 7 -15 15
-15 12 0 15 -15 15 -79 0 -89 9 -104 61 -99 43 4 51 28 10 28 l-31 0 0 75 c0
73 1 75 25 75 16 0 25 6 25 15 0 9 -9 15 -25 15 -20 0 -25 5 -25 25 0 18 -5
25 -20 25 -15 0 -20 -7 -20 -25z"/>
<path d="M1835 3400 c-11 -4 -30 -6 -42 -3 -23 5 -23 4 -23 -101 0 -99 1 -106
20 -106 17 0 19 8 22 88 l3 87 43 3 42 3 0 -90 c0 -84 1 -91 20 -91 19 0 20 7
20 94 0 73 -4 98 -16 110 -17 17 -57 20 -89 6z"/>
<path d="M2044 3400 c-36 -14 -54 -50 -54 -106 0 -60 24 -98 68 -107 40 -8 86
6 90 26 3 14 -2 16 -27 11 -52 -11 -79 2 -90 42 -8 28 -7 45 4 70 14 35 24 39
83 35 22 -2 32 2 32 12 0 24 -63 34 -106 17z"/>
<path d="M2484 3401 c-57 -25 -75 -135 -31 -186 39 -46 131 -34 156 22 19 42
14 109 -11 138 -25 28 -79 40 -114 26z m84 -49 c17 -22 15 -97 -4 -116 -8 -9
-29 -16 -45 -16 -25 0 -33 6 -45 35 -34 82 42 161 94 97z"/>
<path d="M2735 3400 c-11 -4 -30 -6 -42 -3 -23 5 -23 4 -23 -101 0 -99 1 -106
20 -106 17 0 19 8 22 88 l3 87 43 3 42 3 0 -90 c0 -84 1 -91 20 -91 19 0 20 7
20 94 0 73 -4 98 -16 110 -17 17 -57 20 -89 6z"/>
<path d="M1540 3306 c0 -101 8 -119 52 -117 13 0 44 1 71 1 l47 2 0 104 c0 97
-1 104 -20 104 -18 0 -20 -7 -20 -85 0 -81 -1 -85 -24 -91 -55 -14 -61 -6 -64
89 -3 79 -5 87 -22 87 -18 0 -20 -7 -20 -94z"/>
<path d="M2340 3295 c0 -98 1 -105 20 -105 19 0 20 7 20 105 0 98 -1 105 -20
105 -19 0 -20 -7 -20 -105z"/>
<path d="M4073 4243 c-10 -4 -13 -149 -13 -678 0 -528 3 -676 13 -682 6 -4
155 -10 330 -13 l318 -5 -92 -80 c-122 -105 -115 -102 -150 -69 -16 15 -31 25
-34 23 -9 -10 -145 -262 -142 -265 5 -5 287 101 287 108 0 3 -11 20 -25 37
l-26 30 128 110 127 111 1112 0 c612 0 1119 3 1128 6 14 6 16 75 16 684 0 609
-2 678 -16 684 -19 7 -2943 7 -2961 -1z m2937 -683 l0 -640 -1450 0 -1450 0 0
640 0 640 1450 0 1450 0 0 -640z"/>
<path d="M5680 3973 l0 -48 -51 0 c-43 0 -54 -4 -75 -28 -33 -39 -34 -124 -1
-162 23 -27 28 -28 115 -24 l42 2 0 153 c0 130 -2 154 -15 154 -11 0 -15 -12
-15 -47z m-2 -153 c3 -69 -3 -80 -50 -80 -39 0 -58 25 -58 74 0 63 28 90 80
76 23 -6 25 -12 28 -70z"/>
<path d="M4830 3994 c0 -5 39 -162 61 -246 7 -27 15 -38 29 -38 19 0 21 4 60
138 11 39 22 72 24 72 2 0 16 -47 32 -105 24 -90 31 -105 49 -105 19 0 25 15
53 138 37 159 36 152 17 152 -14 0 -17 -9 -53 -150 l-18 -75 -29 102 c-15 56
-31 107 -36 114 -16 27 -36 -4 -63 -105 -16 -58 -30 -106 -31 -106 -2 0 -15
50 -30 110 -23 91 -30 110 -46 110 -11 0 -19 -3 -19 -6z"/>
<path d="M5220 3980 c0 -13 7 -20 20 -20 13 0 20 7 20 20 0 13 -7 20 -20 20
-13 0 -20 -7 -20 -20z"/>
<path d="M5375 3920 c-11 -4 -30 -6 -42 -3 -23 5 -23 4 -23 -101 0 -99 1 -106
20 -106 17 0 19 8 22 88 l3 87 43 3 42 3 0 -90 c0 -84 1 -91 20 -91 19 0 20 7
20 94 0 73 -4 98 -16 110 -17 17 -57 20 -89 6z"/>
<path d="M5814 3921 c-57 -25 -75 -135 -31 -186 39 -46 131 -34 156 22 19 42
14 109 -11 138 -25 28 -79 40 -114 26z m84 -49 c17 -22 15 -97 -4 -116 -8 -9
-29 -16 -45 -16 -25 0 -33 6 -45 35 -34 82 42 161 94 97z"/>
<path d="M5220 3815 c0 -98 1 -105 20 -105 19 0 20 7 20 105 0 98 -1 105 -20
105 -19 0 -20 -7 -20 -105z"/>
<path d="M5980 3918 c1 -2 13 -48 29 -103 23 -82 32 -101 49 -103 18 -3 24 7
44 74 l24 76 24 -76 c38 -124 61 -102 115 112 4 17 1 22 -13 22 -13 0 -22 -17
-38 -77 l-21 -78 -23 78 c-20 66 -26 77 -43 75 -15 -2 -25 -20 -42 -78 l-22
-75 -17 60 c-9 33 -19 68 -22 78 -3 9 -14 17 -25 17 -10 0 -19 -1 -19 -2z"/>
<path d="M4807 3473 c-4 -3 -7 -69 -7 -145 0 -130 1 -138 20 -138 16 0 19 8
22 63 l3 62 53 3 c37 2 52 7 52 18 0 10 -14 14 -56 14 l-55 0 3 48 3 47 68 3
c51 2 67 6 67 17 0 12 -17 15 -83 15 -46 0 -87 -3 -90 -7z"/>
<path d="M5810 3460 c0 -13 7 -20 20 -20 13 0 20 7 20 20 0 13 -7 20 -20 20
-13 0 -20 -7 -20 -20z"/>
<path d="M5670 3425 c0 -16 -6 -25 -15 -25 -8 0 -15 -7 -15 -15 0 -8 7 -15 15
-15 12 0 15 -15 15 -79 0 -89 9 -104 61 -99 43 4 51 28 10 28 l-31 0 0 75 c0
73 1 75 25 75 16 0 25 6 25 15 0 9 -9 15 -25 15 -20 0 -25 5 -25 25 0 18 -5
25 -20 25 -15 0 -20 -7 -20 -25z"/>
<path d="M5295 3400 c-11 -4 -30 -6 -42 -3 -23 5 -23 4 -23 -101 0 -99 1 -106
20 -106 17 0 19 8 22 88 l3 87 43 3 42 3 0 -90 c0 -84 1 -91 20 -91 19 0 20 7
20 94 0 73 -4 98 -16 110 -17 17 -57 20 -89 6z"/>
<path d="M5504 3400 c-36 -14 -54 -50 -54 -106 0 -60 24 -98 68 -107 40 -8 86
6 90 26 3 14 -2 16 -27 11 -52 -11 -79 2 -90 42 -8 28 -7 45 4 70 14 35 24 39
83 35 22 -2 32 2 32 12 0 24 -63 34 -106 17z"/>
<path d="M5944 3401 c-57 -25 -75 -135 -31 -186 39 -46 131 -34 156 22 19 42
14 109 -11 138 -25 28 -79 40 -114 26z m84 -49 c17 -22 15 -97 -4 -116 -8 -9
-29 -16 -45 -16 -25 0 -33 6 -45 35 -34 82 42 161 94 97z"/>
<path d="M6195 3400 c-11 -4 -30 -6 -42 -3 -23 5 -23 4 -23 -101 0 -99 1 -106
20 -106 17 0 19 8 22 88 l3 87 43 3 42 3 0 -90 c0 -84 1 -91 20 -91 19 0 20 7
20 94 0 73 -4 98 -16 110 -17 17 -57 20 -89 6z"/>
<path d="M5000 3306 c0 -101 8 -119 52 -117 13 0 44 1 71 1 l47 2 0 104 c0 97
-1 104 -20 104 -18 0 -20 -7 -20 -85 0 -81 -1 -85 -24 -91 -55 -14 -61 -6 -64
89 -3 79 -5 87 -22 87 -18 0 -20 -7 -20 -94z"/>
<path d="M5810 3295 c0 -98 1 -105 20 -105 19 0 20 7 20 105 0 98 -1 105 -20
105 -19 0 -20 -7 -20 -105z"/>
<path d="M16494 4236 c-7 -19 34 -194 48 -202 5 -4 15 -1 21 5 19 19 -25 200
-50 209 -7 2 -16 -3 -19 -12z"/>
<path d="M12878 4224 c-37 -20 -48 -43 -48 -104 0 -44 5 -56 29 -81 24 -23 38
-29 73 -29 69 1 108 44 108 120 0 34 -6 48 -34 76 -38 38 -81 44 -128 18z m88
-32 c39 -26 44 -93 9 -127 -29 -30 -54 -32 -83 -5 -26 25 -30 85 -6 118 15 22
57 30 80 14z"/>
<path d="M14528 4224 c-37 -20 -48 -43 -48 -104 0 -44 5 -56 29 -81 24 -23 38
-29 73 -29 69 1 108 44 108 120 0 34 -6 48 -34 76 -38 38 -81 44 -128 18z m88
-32 c39 -26 44 -93 9 -127 -29 -30 -54 -32 -83 -5 -26 25 -30 85 -6 118 15 22
57 30 80 14z"/>
<path d="M14786 4219 c-21 -17 -26 -18 -26 -5 0 9 -7 16 -15 16 -12 0 -15 -19
-15 -110 0 -91 3 -110 15 -110 11 0 15 12 15 48 0 76 16 118 50 132 18 8 30
20 30 31 0 25 -21 24 -54 -2z"/>
<path d="M14912 4227 c-61 -34 -74 -129 -26 -186 22 -27 32 -31 74 -31 42 0
52 4 76 33 23 28 25 32 10 35 -10 2 -28 -6 -40 -17 -12 -12 -31 -21 -42 -21
-28 0 -64 28 -64 51 0 17 7 19 81 19 l82 0 -6 38 c-12 71 -86 111 -145 79z
m96 -54 l14 -23 -61 0 c-63 0 -72 7 -45 35 23 22 73 16 92 -12z"/>
<path d="M13070 4222 c0 -4 15 -53 33 -107 26 -78 38 -101 54 -103 20 -3 22 1
54 118 l12 45 22 -80 c18 -65 26 -81 43 -83 17 -3 23 4 31 35 6 21 22 71 35
111 l25 73 -22 -3 c-17 -2 -25 -16 -42 -75 -11 -39 -23 -74 -26 -77 -3 -3 -14
30 -24 74 -16 71 -21 80 -41 80 -19 0 -25 -8 -34 -40 -34 -131 -32 -127 -41
-100 -4 14 -15 51 -24 83 -12 45 -20 57 -35 57 -11 0 -20 -4 -20 -8z"/>
<path d="M7452 4198 c-7 -9 -8 -27 -2 -53 4 -22 13 -66 20 -97 9 -47 15 -58
31 -58 23 0 24 14 3 116 -17 86 -33 114 -52 92z"/>
<path d="M162 4158 c-6 -8 -18 -56 -28 -107 -14 -79 -15 -94 -3 -102 22 -13
30 3 49 102 15 75 16 97 6 107 -10 11 -15 11 -24 0z"/>
<path d="M7765 3898 c-2 -7 -11 -53 -20 -103 -15 -89 -11 -113 18 -102 14 5
51 192 41 209 -8 12 -34 10 -39 -4z"/>
<path d="M10127 3903 c-4 -3 -7 -84 -7 -179 l0 -174 -177 -2 -178 -3 -5 -180
-5 -180 -217 -3 -218 -2 0 -1120 0 -1120 2068 2 2067 3 3 177 2 178 213 2 212
3 3 177 2 178 178 2 177 3 0 1120 0 1120 -2056 3 c-1131 1 -2059 -1 -2062 -5z
m4083 -1118 l0 -1075 -160 0 -160 0 -2 918 -3 917 -1862 3 -1863 2 0 155 0
155 2025 0 2025 0 0 -1075z m-360 -360 l0 -1075 -195 0 -195 0 -2 913 -3 912
-1825 5 -1825 5 -3 158 -3 157 2026 0 2025 0 0 -1075z m-440 -365 l0 -1080
-2025 0 -2025 0 0 1080 0 1080 2025 0 2025 0 0 -1080z"/>
<path d="M9905 2937 c-3 -6 -4 -181 -3 -387 l3 -375 1480 0 1480 0 3 388 2
387 -1480 0 c-1178 0 -1482 -3 -1485 -13z m2945 -377 l0 -360 -1460 0 -1460 0
0 360 0 360 1460 0 1460 0 0 -360z"/>
<path d="M10630 2555 l0 -155 25 0 c24 0 24 1 27 106 l3 107 39 -107 c34 -92
42 -106 62 -106 22 0 37 29 90 180 7 19 10 0 14 -75 5 -94 6 -100 28 -103 l22
-3 0 156 0 156 -32 -3 c-31 -3 -34 -6 -75 -117 -24 -63 -45 -116 -46 -118 -2
-1 -23 52 -47 117 -44 120 -44 120 -77 120 l-33 0 0 -155z"/>
<path d="M11032 2614 c-100 -69 -41 -241 75 -219 38 7 83 45 83 70 0 22 -37
19 -50 -5 -14 -26 -70 -27 -93 -2 -32 35 -21 42 64 42 l82 0 -6 42 c-10 76
-94 115 -155 72z m92 -40 c27 -26 18 -34 -39 -34 -59 0 -64 4 -38 32 20 22 56
23 77 2z"/>
<path d="M11220 2515 l0 -115 25 0 c25 0 25 1 25 78 0 64 4 82 18 95 10 10 25
17 33 17 30 0 39 -24 39 -107 0 -82 0 -83 25 -83 25 0 25 1 25 83 0 89 8 107
47 107 31 0 43 -33 43 -121 0 -62 2 -69 20 -69 19 0 20 7 20 98 0 83 -3 102
-18 115 -23 21 -95 22 -112 2 -11 -13 -14 -13 -27 0 -17 18 -84 20 -101 3 -9
-9 -12 -9 -12 0 0 7 -11 12 -25 12 l-25 0 0 -115z"/>
<path d="M11620 2603 c-62 -55 -47 -169 26 -199 70 -29 138 6 153 78 10 51 2
85 -29 118 -39 42 -105 43 -150 3z m113 -30 c25 -29 26 -93 1 -117 -23 -24
-70 -20 -88 6 -49 69 32 172 87 111z"/>
<path d="M11830 2515 l0 -115 25 0 c24 0 25 2 25 69 0 76 16 107 58 113 21 3
28 -6 59 -86 40 -98 38 -138 -5 -144 -14 -2 -22 -10 -22 -23 0 -25 50 -26 73
-1 16 18 117 267 117 290 0 8 -9 12 -22 10 -17 -2 -26 -18 -45 -73 -13 -38
-27 -73 -31 -77 -4 -4 -20 28 -36 72 l-28 80 -40 0 c-22 0 -48 -5 -58 -10 -13
-7 -21 -7 -25 0 -3 5 -15 10 -26 10 -18 0 -19 -8 -19 -115z"/>
<path d="M9905 1937 c-3 -6 -4 -181 -3 -387 l3 -375 1483 -3 1482 -2 -2 387
-3 388 -1478 3 c-1179 2 -1479 0 -1482 -11z m2945 -377 l0 -360 -1460 0 -1460
0 0 360 0 360 1460 0 1460 0 0 -360z"/>
<path d="M11000 1555 l0 -155 80 0 c100 0 134 16 161 73 37 82 18 180 -43 217
-26 16 -50 20 -115 20 l-83 0 0 -155z m159 100 c48 -24 64 -99 35 -160 -17
-37 -54 -55 -110 -55 l-34 0 0 115 0 115 40 0 c23 0 54 -7 69 -15z"/>
<path d="M11292 1688 c2 -15 11 -24 26 -26 18 -3 22 1 22 22 0 21 -5 26 -26
26 -21 0 -25 -4 -22 -22z"/>
<path d="M11600 1555 l0 -155 25 0 c23 0 25 4 25 44 0 72 21 76 64 11 30 -46
41 -55 66 -55 l30 0 -47 70 -46 71 43 44 44 45 -29 0 c-21 0 -42 -13 -77 -47
l-48 -47 0 87 c0 86 0 87 -25 87 l-25 0 0 -155z"/>
<path d="M11297 1623 c-4 -3 -7 -55 -7 -115 l0 -108 25 0 25 0 0 115 c0 105
-2 115 -18 115 -10 0 -22 -3 -25 -7z"/>
<path d="M11395 1605 c-14 -13 -25 -30 -25 -37 0 -24 29 -56 57 -63 60 -15 93
-34 87 -49 -9 -25 -80 -21 -94 4 -6 11 -20 20 -30 20 -26 0 -26 -34 -1 -59 42
-42 129 -35 164 11 17 23 18 29 6 54 -11 22 -28 34 -74 49 -67 23 -81 48 -28
53 23 2 35 -3 46 -18 19 -27 53 -23 49 5 -9 57 -112 76 -157 30z"/>
<path d="M16573 3889 c-6 -6 -4 -45 6 -107 14 -84 19 -97 36 -97 23 0 23 20 4
137 -10 64 -26 87 -46 67z"/>
<path d="M7514 3774 c8 -99 19 -139 37 -139 11 0 13 15 11 75 -3 95 -13 134
-37 139 -17 3 -18 -3 -11 -75z"/>
<path d="M95 3798 c-9 -29 -25 -189 -20 -198 11 -18 35 -10 39 13 11 49 24
182 20 189 -8 12 -34 9 -39 -4z"/>
<path d="M7705 3483 c-12 -126 -11 -147 6 -151 22 -4 28 14 35 123 7 92 6 95
-14 95 -18 0 -21 -8 -27 -67z"/>
<path d="M16624 3526 c-3 -9 -2 -58 2 -108 8 -83 11 -93 29 -93 19 0 20 5 16
78 -2 44 -6 91 -10 105 -8 30 -28 40 -37 18z"/>
<path d="M7551 3423 c0 -95 11 -148 29 -148 19 0 24 47 15 143 -6 62 -9 72
-26 72 -17 0 -19 -7 -18 -67z"/>
<path d="M56 3433 c-2 -10 -6 -58 -8 -108 -3 -84 -2 -90 17 -90 18 0 21 9 28
94 4 52 5 101 3 108 -8 19 -34 16 -40 -4z"/>
<path d="M7693 3192 c-16 -10 -20 -199 -4 -215 21 -21 29 7 33 105 3 96 -5
125 -29 110z"/>
<path d="M16650 3075 c0 -88 3 -107 16 -112 25 -10 29 9 24 113 -4 84 -8 99
-22 102 -16 3 -18 -7 -18 -103z"/>
<path d="M7572 3023 c2 -88 6 -108 18 -108 12 0 16 20 18 108 3 102 2 107 -18
107 -20 0 -21 -5 -18 -107z"/>
<path d="M36 2996 c-7 -102 -2 -129 23 -124 13 3 16 21 19 111 2 99 1 107 -16
107 -17 0 -20 -11 -26 -94z"/>
<path d="M14902 2988 c-16 -16 -15 -33 4 -48 13 -11 19 -10 36 8 18 17 19 23
8 36 -15 19 -32 20 -48 4z"/>
<path d="M14772 2838 c-16 -16 -15 -33 4 -48 13 -11 19 -10 36 8 18 17 19 23
8 36 -15 19 -32 20 -48 4z"/>
<path d="M7683 2827 c-5 -7 -6 -57 -3 -112 4 -80 8 -100 20 -100 22 0 28 210
6 218 -8 3 -18 0 -23 -6z"/>
<path d="M16656 2812 c-7 -12 -11 -201 -3 -208 3 -4 13 -4 22 -1 22 9 23 217
1 217 -8 0 -17 -4 -20 -8z"/>
<path d="M7567 2703 c-13 -135 -6 -171 28 -143 11 9 15 37 15 111 0 90 -2 99
-19 99 -15 0 -19 -11 -24 -67z"/>
<path d="M40 2633 c0 -103 8 -130 34 -120 18 7 20 40 9 150 -5 56 -9 67 -24
67 -17 0 -19 -9 -19 -97z"/>
<path d="M14632 2688 c-16 -16 -15 -33 4 -48 13 -11 19 -10 36 8 18 17 19 23
8 36 -15 19 -32 20 -48 4z"/>
<path d="M7701 2471 c-10 -6 -10 -28 -1 -107 11 -101 21 -127 41 -107 14 14 1
199 -15 212 -6 5 -17 6 -25 2z"/>
<path d="M1765 2447 c-3 -6 -4 -185 -3 -397 l3 -385 1018 -3 1017 -2 0 -85 0
-85 -44 0 -44 0 54 -142 c30 -79 55 -147 57 -152 1 -5 28 58 58 140 l56 149
-44 3 -43 3 0 85 0 84 1013 0 c775 0 1016 3 1025 12 9 9 12 109 12 388 0 279
-3 379 -12 388 -18 18 -4117 17 -4123 -1z m4085 -387 l0 -350 -2025 0 -2025 0
0 350 0 350 2025 0 2025 0 0 -350z"/>
<path d="M2250 2055 l0 -155 25 0 c24 0 25 2 25 70 l0 70 70 0 c63 0 70 2 70
20 0 18 -7 20 -70 20 l-70 0 0 45 0 45 80 0 c73 0 80 2 80 20 0 19 -7 20 -105
20 l-105 0 0 -155z"/>
<path d="M2480 2055 l0 -155 25 0 25 0 0 155 0 155 -25 0 -25 0 0 -155z"/>
<path d="M3160 2055 l0 -155 25 0 c23 0 25 3 25 52 0 39 5 57 22 75 l21 23 50
-71 c52 -75 62 -83 97 -77 20 3 17 11 -44 93 l-67 90 57 53 c32 29 61 49 64
45 4 -5 28 -70 55 -145 45 -133 48 -138 75 -138 21 0 30 6 38 28 5 15 30 84
56 155 l45 127 -27 0 c-27 0 -30 -5 -67 -120 -21 -66 -42 -117 -46 -112 -3 4
-23 58 -44 120 l-37 112 -51 0 c-51 0 -53 -1 -124 -72 l-73 -72 0 72 c0 70 -1
72 -25 72 l-25 0 0 -155z"/>
<path d="M3860 2103 c-24 -60 -51 -129 -61 -155 l-19 -48 28 0 c24 0 30 6 43
43 l16 42 60 3 60 3 17 -46 c14 -36 22 -45 42 -45 13 0 24 4 24 10 0 5 -25 75
-56 155 -54 138 -58 145 -85 145 -26 0 -30 -7 -69 -107z m94 -17 c9 -27 16
-51 16 -53 0 -2 -18 -3 -40 -3 -22 0 -40 3 -40 7 0 21 35 112 41 106 3 -5 14
-30 23 -57z"/>
<path d="M4560 2055 l0 -155 25 0 25 0 0 155 0 155 -25 0 -25 0 0 -155z"/>
<path d="M2610 2103 c-62 -55 -47 -169 26 -199 70 -29 138 6 153 78 10 51 2
85 -29 118 -39 42 -105 43 -150 3z m113 -30 c25 -29 26 -93 1 -117 -23 -24
-70 -20 -88 6 -49 69 32 172 87 111z"/>
<path d="M2808 2123 c-3 -4 11 -57 30 -116 33 -102 37 -108 60 -105 23 3 28
11 43 71 9 38 19 70 21 73 3 2 12 -30 22 -72 17 -71 19 -75 44 -72 23 3 29 13
59 108 18 58 33 108 33 113 0 4 -10 7 -23 7 -21 0 -26 -8 -42 -75 -11 -41 -22
-75 -25 -75 -4 0 -14 34 -24 76 -17 71 -19 75 -44 72 -22 -2 -28 -10 -34 -43
-5 -22 -14 -58 -20 -80 l-11 -40 -21 80 c-18 65 -26 81 -43 83 -12 2 -23 0
-25 -5z"/>
<path d="M4090 2015 l0 -115 25 0 c25 0 25 1 25 78 0 84 14 112 56 112 36 0
44 -20 44 -108 0 -81 1 -83 23 -80 21 3 22 7 22 95 0 111 -14 133 -80 133 -22
0 -46 -5 -53 -12 -9 -9 -12 -9 -12 0 0 7 -11 12 -25 12 l-25 0 0 -115z"/>
<path d="M4355 2105 c-33 -32 -32 -55 0 -55 15 0 25 6 25 15 0 19 48 31 69 18
30 -19 17 -36 -39 -49 -33 -7 -61 -21 -72 -34 -42 -51 -6 -107 65 -102 74 6
82 5 97 -1 8 -4 22 -3 30 2 11 8 12 14 3 33 -6 13 -14 56 -16 97 -5 88 -17
101 -89 101 -39 0 -54 -5 -73 -25z m115 -114 c0 -28 -27 -51 -61 -51 -32 0
-49 24 -31 42 6 6 28 14 49 18 21 4 39 8 41 9 1 0 2 -8 2 -18z"/>
<path d="M4630 2123 c0 -5 19 -55 41 -112 34 -83 40 -108 33 -130 -6 -16 -18
-27 -32 -29 -14 -2 -22 -10 -22 -23 0 -25 50 -26 73 -1 16 18 117 267 117 290
0 8 -9 12 -22 10 -17 -2 -26 -18 -45 -73 -13 -38 -27 -73 -31 -77 -4 -4 -20
28 -36 72 -25 70 -31 80 -52 80 -13 0 -24 -3 -24 -7z"/>
<path d="M4867 2124 c-21 -22 -4 -33 53 -36 l61 -3 -66 -79 c-36 -43 -65 -84
-65 -92 0 -11 21 -14 100 -14 93 0 100 1 100 20 0 17 -8 19 -64 22 l-65 3 65
79 c35 44 63 84 61 90 -4 12 -169 21 -180 10z"/>
<path d="M5112 2114 c-100 -69 -41 -241 75 -219 38 7 83 45 83 70 0 22 -37 19
-50 -5 -14 -26 -70 -27 -93 -2 -32 35 -21 42 64 42 l82 0 -6 42 c-10 76 -94
115 -155 72z m92 -40 c27 -26 18 -34 -39 -34 -59 0 -64 4 -38 32 20 22 56 23
77 2z"/>
<path d="M5300 2015 l0 -115 25 0 c24 0 25 2 25 68 0 75 16 109 53 114 31 4
37 48 7 48 -12 0 -30 -5 -40 -10 -13 -7 -21 -7 -25 0 -3 5 -15 10 -26 10 -18
0 -19 -8 -19 -115z"/>
<path d="M16637 2452 c-3 -4 -9 -55 -13 -111 -7 -97 -6 -103 12 -99 21 4 30
40 35 148 3 54 1 65 -13 68 -9 2 -19 -1 -21 -6z"/>
<path d="M7563 2412 c-17 -10 -33 -194 -19 -209 24 -26 36 4 42 104 7 98 2
120 -23 105z"/>
<path d="M64 2278 c9 -114 13 -130 34 -126 18 4 20 53 7 166 -5 44 -10 52 -27
52 -20 0 -20 -4 -14 -92z"/>
<path d="M7735 2110 c-6 -9 22 -186 31 -202 12 -18 34 -7 34 18 0 43 -22 168
-33 182 -11 14 -24 16 -32 2z"/>
<path d="M16595 2088 c-2 -7 -11 -51 -19 -98 -12 -68 -12 -88 -2 -98 10 -11
15 -11 23 0 12 15 43 189 36 201 -7 12 -33 8 -38 -5z"/>
<path d="M7523 2048 c-11 -13 -33 -136 -33 -182 0 -19 5 -26 19 -26 16 0 21
14 34 98 12 77 13 100 3 110 -10 11 -15 11 -23 0z"/>
<path d="M104 2005 c-8 -20 17 -182 30 -200 7 -9 16 -12 25 -6 13 8 9 56 -15
183 -6 30 -32 45 -40 23z"/>
<path d="M7800 1740 c0 -12 10 -59 21 -105 17 -69 25 -85 40 -85 24 0 24 5 -2
118 -18 76 -25 92 -40 92 -12 0 -19 -7 -19 -20z"/>
<path d="M16524 1723 c-3 -16 -14 -60 -24 -100 -15 -63 -16 -74 -3 -84 8 -7
17 -8 22 -3 13 14 54 192 46 203 -12 20 -35 11 -41 -16z"/>
<path d="M7455 1688 c-2 -7 -12 -52 -23 -100 -14 -65 -16 -90 -8 -97 7 -6 17
-7 22 -3 14 8 56 190 48 203 -8 13 -34 11 -39 -3z"/>
<path d="M164 1646 c-7 -18 35 -194 48 -202 5 -3 15 -1 21 5 9 9 -6 115 -29
194 -6 20 -32 23 -40 3z"/>
<path d="M4092 1534 c-59 -41 -74 -158 -28 -219 52 -68 165 -64 202 7 20 38
18 58 -6 58 -11 0 -20 -6 -20 -14 0 -30 -41 -66 -75 -66 -50 0 -85 46 -85 112
0 41 5 54 29 79 39 38 75 38 111 -1 34 -37 64 -41 55 -7 -13 43 -51 67 -108
67 -31 0 -62 -6 -75 -16z"/>
<path d="M4320 1410 c0 -133 1 -140 20 -140 18 0 20 7 20 69 0 79 15 104 59
99 25 -3 26 -5 29 -85 3 -75 5 -83 22 -83 18 0 20 7 20 84 0 64 -4 88 -16 100
-22 22 -58 30 -82 17 -31 -16 -32 -15 -32 34 0 38 -3 45 -20 45 -19 0 -20 -7
-20 -140z"/>
<path d="M5677 1523 c-4 -3 -7 -17 -7 -30 0 -14 -6 -23 -15 -23 -8 0 -15 -7
-15 -15 0 -8 7 -15 15 -15 12 0 15 -13 15 -59 0 -84 12 -111 50 -111 34 0 42
25 10 33 -17 4 -20 14 -20 71 0 59 2 66 20 66 11 0 20 7 20 15 0 8 -9 15 -20
15 -16 0 -20 7 -20 30 0 28 -17 40 -33 23z"/>
<path d="M6457 1523 c-4 -3 -7 -17 -7 -30 0 -14 -6 -23 -15 -23 -8 0 -15 -7
-15 -15 0 -8 7 -15 15 -15 12 0 15 -13 15 -59 0 -80 13 -111 45 -111 27 0 35
24 10 34 -11 4 -15 22 -15 71 0 51 3 65 15 65 8 0 15 7 15 15 0 8 -7 15 -15
15 -10 0 -15 10 -15 30 0 28 -17 40 -33 23z"/>
<path d="M4585 1471 c-39 -17 -60 -51 -60 -96 0 -62 30 -99 83 -103 53 -4 80
11 98 54 28 67 -6 138 -71 149 -17 2 -39 1 -50 -4z m81 -56 c31 -47 1 -115
-50 -115 -25 0 -56 37 -56 68 0 67 72 99 106 47z"/>
<path d="M4805 1471 c-39 -17 -60 -51 -60 -96 0 -62 30 -99 83 -103 53 -4 80
11 98 54 28 67 -6 138 -71 149 -17 2 -39 1 -50 -4z m81 -56 c31 -47 1 -115
-50 -115 -25 0 -56 37 -56 68 0 67 72 99 106 47z"/>
<path d="M5001 1468 c-60 -32 -40 -89 39 -111 34 -10 45 -18 45 -32 0 -30 -59
-34 -77 -6 -15 24 -48 28 -48 6 0 -31 38 -55 88 -55 55 0 82 20 82 62 0 32
-13 43 -70 58 -45 12 -63 27 -54 42 9 14 64 9 70 -7 7 -18 44 -20 44 -2 0 41
-74 69 -119 45z"/>
<path d="M5224 1473 c-63 -12 -91 -112 -48 -170 16 -22 31 -29 63 -31 49 -4
91 18 91 48 0 26 -21 26 -43 0 -22 -27 -62 -26 -81 2 -9 12 -16 26 -16 30 0 5
34 8 76 8 l77 0 -7 33 c-11 54 -61 90 -112 80z m58 -50 c29 -26 21 -33 -37
-33 -59 0 -64 4 -38 32 20 22 51 23 75 1z"/>
<path d="M5501 1468 c-60 -32 -40 -89 39 -111 34 -10 45 -18 45 -32 0 -30 -59
-34 -77 -6 -15 24 -48 28 -48 6 0 -31 38 -55 88 -55 55 0 82 20 82 62 0 32
-13 43 -70 58 -45 12 -63 27 -54 42 9 14 64 9 70 -7 7 -18 44 -20 44 -2 0 41
-74 69 -119 45z"/>
<path d="M5835 1471 c-39 -17 -60 -51 -60 -96 0 -62 30 -99 83 -103 53 -4 80
11 98 54 28 67 -6 138 -71 149 -17 2 -39 1 -50 -4z m81 -56 c31 -47 1 -115
-50 -115 -25 0 -56 37 -56 68 0 67 72 99 106 47z"/>
<path d="M6068 1466 c-16 -8 -28 -11 -28 -5 0 5 -9 9 -20 9 -19 0 -20 -7 -20
-100 0 -93 1 -100 20 -100 18 0 20 7 20 64 0 67 11 88 50 101 11 3 20 15 20
26 0 23 -6 23 -42 5z"/>
<path d="M6184 1473 c-63 -12 -91 -112 -48 -170 16 -22 31 -29 63 -31 49 -4
91 18 91 48 0 26 -21 26 -43 0 -22 -27 -62 -26 -81 2 -9 12 -16 26 -16 30 0 5
34 8 76 8 l77 0 -7 33 c-11 54 -61 90 -112 80z m58 -50 c29 -26 21 -33 -37
-33 -59 0 -64 4 -38 32 20 22 51 23 75 1z"/>
<path d="M6825 1471 c-11 -5 -33 -6 -48 -4 l-28 6 3 -139 c3 -123 5 -139 21
-142 14 -3 17 4 17 49 0 41 3 50 12 41 7 -7 31 -12 54 -12 57 0 84 33 84 101
0 74 -57 124 -115 100z m70 -66 c16 -36 7 -81 -18 -97 -23 -15 -56 -8 -71 14
-35 49 -8 118 45 118 25 0 33 -6 44 -35z"/>
<path d="M7034 1473 c-63 -12 -91 -112 -48 -170 16 -22 31 -29 63 -31 49 -4
91 18 91 48 0 26 -21 26 -43 0 -22 -27 -62 -26 -81 2 -9 12 -16 26 -16 30 0 5
34 8 76 8 l77 0 -7 33 c-11 54 -61 90 -112 80z m58 -50 c29 -26 21 -33 -37
-33 -59 0 -64 4 -38 32 20 22 51 23 75 1z"/>
<path d="M6550 1421 c11 -28 28 -72 39 -98 21 -55 14 -93 -19 -93 -13 0 -20
-7 -20 -20 0 -26 41 -27 62 -2 9 9 34 67 58 127 23 61 44 116 47 123 3 7 -3
12 -15 12 -15 0 -25 -16 -47 -77 l-28 -76 -26 74 c-21 60 -30 75 -49 77 l-22
3 20 -50z"/>
<path d="M7894 1406 c-7 -18 43 -175 62 -196 10 -10 17 -11 25 -3 9 9 3 36
-22 109 -33 95 -53 122 -65 90z"/>
<path d="M16435 1388 c-64 -182 -69 -209 -32 -195 16 6 80 184 71 198 -8 13
-34 11 -39 -3z"/>
<path d="M7376 1342 c-10 -17 -56 -167 -56 -184 0 -11 7 -18 18 -18 15 0 25
19 46 88 14 48 26 95 26 105 0 17 -25 24 -34 9z"/>
<path d="M250 1288 c1 -45 54 -183 73 -186 24 -5 21 25 -11 123 -19 55 -32 81
-44 83 -13 3 -18 -3 -18 -20z"/>
<path d="M1467 1173 c-4 -3 -7 -183 -7 -400 l0 -393 2365 0 2365 0 -2 398 -3
397 -2356 3 c-1296 1 -2359 -1 -2362 -5z m4683 -398 l0 -355 -2325 0 -2325 0
0 355 0 355 2325 0 2325 0 0 -355z"/>
<path d="M3126 931 c-4 -5 -31 -74 -62 -153 -31 -78 -58 -149 -61 -155 -3 -8
3 -13 14 -13 15 0 31 32 81 158 34 87 62 161 62 165 0 10 -28 8 -34 -2z"/>
<path d="M4386 931 c-4 -5 -31 -74 -62 -153 -31 -78 -58 -149 -61 -155 -3 -8
3 -13 14 -13 15 0 31 32 81 158 34 87 62 161 62 165 0 10 -28 8 -34 -2z"/>
<path d="M2106 783 c-31 -82 -56 -152 -56 -156 0 -5 10 -7 22 -5 15 2 26 16
37 46 l15 43 65 -3 64 -3 15 -43 c14 -42 15 -43 55 -40 37 3 41 6 56 46 l15
43 65 -3 64 -3 15 -42 c11 -35 18 -43 38 -43 13 0 24 3 24 7 0 3 -26 73 -57
155 -54 137 -60 148 -84 148 -24 0 -30 -10 -80 -141 l-55 -142 -55 142 c-50
131 -56 141 -80 141 -24 0 -30 -10 -83 -147z m108 30 c9 -26 16 -50 16 -55 0
-4 -20 -8 -44 -8 l-45 0 21 60 c11 33 24 58 28 55 4 -3 15 -26 24 -52z m270 0
c9 -26 16 -50 16 -55 0 -4 -20 -8 -44 -8 l-45 0 21 60 c11 33 24 58 28 55 4
-3 15 -26 24 -52z"/>
<path d="M2630 775 l0 -155 25 0 c24 0 25 2 25 65 l0 65 54 0 c62 0 86 -16 86
-58 0 -51 11 -72 37 -72 18 0 23 4 20 18 -3 9 -8 38 -12 64 -3 25 -12 52 -20
58 -11 9 -11 14 6 31 28 28 25 84 -6 114 -22 23 -32 25 -120 25 l-95 0 0 -155z
m184 94 c30 -44 -5 -79 -81 -79 l-53 0 0 50 0 50 59 0 c50 0 62 -4 75 -21z"/>
<path d="M3326 783 c-31 -82 -56 -152 -56 -156 0 -5 10 -7 22 -5 15 2 26 16
37 46 l15 43 65 -3 64 -3 15 -42 c11 -35 18 -43 38 -43 13 0 24 3 24 7 0 3
-26 73 -57 155 -54 138 -60 148 -84 148 -24 0 -30 -10 -83 -147z m108 30 c9
-26 16 -50 16 -55 0 -4 -20 -8 -44 -8 l-45 0 21 60 c11 33 24 58 28 55 4 -3
15 -26 24 -52z"/>
<path d="M3580 816 c0 -63 4 -126 10 -140 14 -38 54 -59 113 -59 105 0 127 36
127 203 l0 110 -25 0 -25 0 0 -118 c0 -107 -2 -121 -20 -137 -29 -26 -85 -25
-113 3 -20 20 -22 35 -26 137 -3 105 -5 115 -22 115 -18 0 -19 -9 -19 -114z"/>
<path d="M3890 775 l0 -155 25 0 c24 0 25 2 25 65 l0 65 54 0 c62 0 86 -16 86
-58 0 -51 11 -72 37 -72 18 0 23 4 20 18 -3 9 -8 38 -12 64 -3 25 -12 52 -20
58 -11 9 -11 14 6 31 28 28 25 84 -6 114 -22 23 -32 25 -120 25 l-95 0 0 -155z
m184 94 c30 -44 -5 -79 -81 -79 l-53 0 0 50 0 50 59 0 c50 0 62 -4 75 -21z"/>
<path d="M4560 775 l0 -155 25 0 c24 0 25 2 25 65 l0 65 54 0 c62 0 86 -16 86
-58 0 -51 11 -72 37 -72 18 0 23 4 20 18 -3 9 -8 38 -12 64 -3 25 -12 52 -20
58 -11 9 -11 14 6 31 28 28 25 84 -6 114 -22 23 -32 25 -120 25 l-95 0 0 -155z
m184 94 c30 -44 -5 -79 -81 -79 l-53 0 0 50 0 50 59 0 c50 0 62 -4 75 -21z"/>
<path d="M4860 775 l0 -156 23 3 c21 3 22 8 27 111 l5 107 40 -110 c34 -92 43
-110 61 -110 18 0 28 19 65 118 l44 117 3 -117 c2 -110 4 -118 22 -118 19 0
20 8 20 156 l0 155 -31 -3 c-30 -3 -33 -7 -73 -115 -23 -61 -44 -114 -47 -118
-4 -3 -26 47 -50 112 -43 115 -45 118 -77 121 l-32 3 0 -156z"/>
<path d="M5232 813 c51 -206 46 -193 73 -193 26 0 22 -9 65 153 13 50 26 83
30 75 4 -7 20 -62 35 -121 27 -103 30 -108 53 -105 23 3 28 14 63 143 45 167
45 167 17 163 -22 -3 -21 2 -73 -213 -6 -26 -12 -14 -39 90 -30 111 -34 120
-57 123 -27 3 -24 11 -80 -198 l-11 -45 -24 100 c-13 55 -26 110 -29 123 -4
15 -13 22 -29 22 l-24 0 30 -117z"/>
<path d="M8015 1070 c-6 -10 57 -161 78 -187 13 -18 26 -16 34 3 6 16 -63 172
-82 186 -14 10 -23 10 -30 -2z"/>
<path d="M16323 1062 c-18 -12 -95 -173 -89 -188 13 -34 38 -11 76 72 22 48
40 93 40 100 0 17 -13 25 -27 16z"/>
<path d="M7226 920 c-36 -86 -40 -120 -16 -120 14 0 81 146 83 180 1 15 -4 25
-14 28 -12 2 -26 -21 -53 -88z"/>
<path d="M366 961 c-7 -11 59 -169 80 -191 11 -11 17 -11 26 -2 9 9 2 33 -29
104 -37 86 -62 114 -77 89z"/>
<path d="M8182 747 c-9 -10 0 -31 37 -88 58 -90 74 -105 90 -85 10 12 1 31
-45 100 -31 47 -60 86 -64 86 -4 0 -12 -6 -18 -13z"/>
<path d="M16138 718 c-69 -92 -97 -142 -87 -154 17 -21 31 -8 88 77 48 72 52
82 39 96 -14 13 -18 11 -40 -19z"/>
<path d="M7061 599 c-50 -79 -58 -109 -27 -109 15 0 108 141 110 168 0 9 -6
18 -15 20 -10 2 -33 -24 -68 -79z"/>
<path d="M11683 669 c-38 -11 -73 -52 -73 -85 0 -36 32 -61 108 -83 38 -12 75
-27 80 -34 30 -36 -30 -86 -85 -72 -35 8 -53 23 -64 53 -12 32 -45 26 -41 -8
7 -60 90 -98 170 -78 50 13 72 39 72 89 0 46 -22 66 -96 86 -33 8 -67 19 -77
25 -26 13 -18 49 15 67 33 19 78 6 93 -27 10 -23 55 -32 55 -11 0 28 -37 70
-70 79 -40 11 -44 11 -87 -1z"/>
<path d="M10040 515 l0 -155 25 0 c24 0 25 2 25 70 l0 70 70 0 c63 0 70 2 70
20 0 18 -7 20 -70 20 l-70 0 0 45 0 45 80 0 c73 0 80 2 80 20 0 19 -7 20 -105
20 l-105 0 0 -155z"/>
<path d="M10290 515 c0 -148 1 -155 20 -155 19 0 20 7 20 155 0 148 -1 155
-20 155 -19 0 -20 -7 -20 -155z"/>
<path d="M10950 515 l0 -155 25 0 c24 0 25 3 25 53 0 43 5 58 23 75 l23 22 53
-75 c45 -65 56 -75 82 -75 l31 0 -38 53 c-21 28 -51 69 -67 90 l-30 39 64 64
c63 63 63 64 34 64 -23 0 -45 -15 -102 -72 l-73 -72 0 72 c0 70 -1 72 -25 72
l-25 0 0 -155z"/>
<path d="M11212 657 c2 -7 25 -76 52 -155 47 -134 51 -142 76 -142 25 0 29 8
78 148 29 81 52 151 52 155 0 5 -10 7 -22 5 -18 -2 -28 -23 -64 -128 -47 -142
-39 -144 -95 28 -30 91 -36 102 -57 102 -14 0 -22 -5 -20 -13z"/>
<path d="M12760 515 l0 -155 25 0 25 0 0 155 0 155 -25 0 -25 0 0 -155z"/>
<path d="M524 637 c-6 -17 88 -172 110 -180 16 -6 26 1 26 19 0 17 -103 167
-118 172 -6 2 -15 -3 -18 -11z"/>
<path d="M11900 620 c0 -23 -4 -30 -20 -30 -13 0 -20 -7 -20 -20 0 -13 7 -20
20 -20 18 0 20 -7 20 -83 0 -91 8 -107 52 -107 21 0 28 5 28 20 0 13 -7 20
-20 20 -18 0 -20 7 -20 75 0 68 2 75 20 75 13 0 20 7 20 20 0 13 -7 20 -20 20
-16 0 -20 7 -20 30 0 23 -4 30 -20 30 -16 0 -20 -7 -20 -30z"/>
<path d="M13110 620 c0 -23 -4 -30 -20 -30 -13 0 -20 -7 -20 -20 0 -13 7 -20
20 -20 18 0 20 -7 20 -83 0 -91 8 -107 52 -107 21 0 28 5 28 20 0 13 -7 20
-20 20 -18 0 -20 7 -20 75 0 68 2 75 20 75 13 0 20 7 20 20 0 13 -7 20 -20 20
-16 0 -20 7 -20 30 0 23 -4 30 -20 30 -16 0 -20 -7 -20 -30z"/>
<path d="M10407 569 c-52 -40 -55 -133 -5 -186 17 -18 32 -23 71 -23 42 0 53
4 78 31 49 52 38 148 -21 182 -38 23 -92 21 -123 -4z m107 -35 c38 -37 29
-108 -17 -134 -24 -13 -28 -13 -54 6 -55 41 -36 144 27 144 15 0 36 -7 44 -16z"/>
<path d="M10610 580 c0 -6 14 -58 32 -115 28 -93 35 -105 55 -105 18 0 24 8
33 43 6 23 16 60 22 82 l11 40 21 -82 c18 -74 22 -83 43 -83 20 0 26 12 54
103 18 56 34 108 37 115 3 10 -2 13 -19 10 -20 -3 -26 -14 -43 -80 -12 -43
-23 -78 -26 -78 -3 0 -14 35 -25 78 -17 63 -24 78 -41 80 -19 3 -24 -6 -39
-70 -23 -95 -30 -109 -38 -69 -19 92 -39 141 -58 141 -10 0 -19 -5 -19 -10z"/>
<path d="M12057 569 c-52 -40 -55 -133 -5 -186 17 -18 32 -23 71 -23 42 0 53
4 78 31 49 52 38 148 -21 182 -38 23 -92 21 -123 -4z m107 -35 c38 -37 29
-108 -17 -134 -24 -13 -28 -13 -54 6 -55 41 -36 144 27 144 15 0 36 -7 44 -16z"/>
<path d="M12267 583 c-4 -3 -7 -55 -7 -115 0 -99 2 -108 19 -108 15 0 19 10
24 68 7 86 12 98 48 111 19 7 29 17 29 30 0 28 -27 27 -57 -1 l-23 -21 0 21
c0 21 -19 30 -33 15z"/>
<path d="M12437 570 c-35 -27 -50 -83 -36 -132 14 -54 44 -78 95 -78 57 0 72
7 90 41 13 26 13 30 -1 35 -10 4 -25 -4 -41 -21 -20 -21 -30 -26 -52 -20 -29
6 -52 30 -52 52 0 10 21 13 81 13 l82 0 -6 37 c-9 52 -51 93 -98 93 -21 0 -47
-8 -62 -20z m111 -47 l14 -23 -61 0 c-33 0 -61 3 -61 7 0 3 8 15 17 25 23 25
71 20 91 -9z"/>
<path d="M12864 577 c-2 -7 -3 -58 -2 -113 3 -94 4 -99 26 -102 21 -3 22 -1
22 77 0 86 12 111 54 111 38 0 46 -19 46 -107 0 -76 2 -83 20 -83 19 0 20 7
20 95 0 82 -3 98 -20 115 -24 24 -77 26 -108 4 -20 -14 -22 -14 -22 0 0 19
-29 21 -36 3z"/>
<path d="M13262 573 c-11 -10 -23 -28 -27 -40 -5 -19 -2 -23 14 -23 11 0 25 9
31 21 16 28 85 24 85 -6 0 -16 -12 -23 -60 -35 -48 -12 -62 -21 -73 -43 -11
-22 -11 -32 0 -54 11 -24 20 -28 61 -31 30 -2 55 2 64 10 13 10 17 10 20 1 6
-18 63 -17 63 1 0 8 -7 16 -15 20 -12 4 -15 23 -15 85 0 71 -2 82 -22 95 -30
22 -101 21 -126 -1z m106 -130 c-6 -50 -98 -71 -98 -23 0 22 11 30 54 41 47
11 48 11 44 -18z"/>
<path d="M13464 577 c-2 -7 -3 -58 -2 -113 3 -94 4 -99 26 -102 21 -3 22 -1
22 77 0 86 12 111 54 111 38 0 46 -19 46 -107 0 -76 2 -83 20 -83 19 0 20 7
20 95 0 82 -3 98 -20 115 -24 24 -77 26 -108 4 -20 -14 -22 -14 -22 0 0 19
-29 21 -36 3z"/>
<path d="M13737 569 c-55 -42 -56 -158 -2 -193 37 -24 107 -21 132 7 11 12 24
32 28 45 9 32 -32 31 -47 -2 -6 -14 -17 -27 -25 -30 -23 -9 -63 4 -73 24 -15
28 -12 83 6 108 20 29 69 30 86 2 18 -28 58 -27 51 0 -15 56 -106 79 -156 39z"/>
<path d="M13967 570 c-35 -27 -50 -83 -36 -132 14 -54 44 -78 95 -78 57 0 72
7 90 41 13 26 13 30 -1 35 -10 4 -25 -4 -41 -21 -20 -21 -30 -26 -52 -20 -29
6 -52 30 -52 52 0 10 21 13 81 13 l82 0 -6 37 c-9 52 -51 93 -98 93 -21 0 -47
-8 -62 -20z m111 -47 l14 -23 -61 0 c-33 0 -61 3 -61 7 0 3 8 15 17 25 23 25
71 20 91 -9z"/>
<path d="M14183 575 c-16 -11 -23 -26 -23 -50 0 -37 23 -56 87 -69 17 -4 37
-14 44 -23 11 -13 10 -18 -6 -29 -26 -19 -48 -18 -78 6 -27 22 -57 27 -57 10
0 -6 11 -22 25 -35 19 -20 34 -25 72 -25 64 0 93 21 93 65 0 40 -23 60 -82 70
-67 13 -77 55 -12 55 22 0 37 -6 40 -15 7 -18 44 -20 44 -2 0 47 -101 76 -147
42z"/>
<path d="M8394 455 c-5 -12 13 -37 62 -86 69 -70 90 -81 100 -55 4 9 -21 40
-66 83 -82 78 -88 81 -96 58z"/>
<path d="M15871 389 c-48 -45 -71 -74 -67 -84 3 -8 10 -15 17 -15 18 0 150
133 147 149 -6 28 -24 19 -97 -50z"/>
<path d="M6900 381 c0 -5 -29 -33 -64 -62 -64 -53 -83 -89 -48 -89 9 0 48 27
85 61 68 61 86 99 47 99 -11 0 -20 -4 -20 -9z"/>
<path d="M740 342 c0 -32 137 -146 164 -136 9 3 16 10 16 14 0 11 -157 140
-170 140 -5 0 -10 -8 -10 -18z"/>
<path d="M8671 231 c-22 -14 -1 -34 69 -65 80 -36 130 -44 130 -22 0 9 -12 22
-27 28 -16 6 -57 24 -92 39 -35 16 -64 29 -65 29 0 0 -7 -4 -15 -9z"/>
<path d="M15630 215 c-14 -8 -47 -22 -75 -31 -60 -20 -77 -34 -66 -53 10 -15
46 -6 144 36 40 18 57 31 57 44 0 23 -25 24 -60 4z"/>
<path d="M6599 175 c-3 -2 -38 -9 -79 -16 -88 -13 -91 -15 -83 -36 13 -34 213
5 213 41 0 15 -39 23 -51 11z"/>
<path d="M1040 150 c0 -26 34 -35 135 -35 64 0 80 3 80 15 0 11 -24 17 -95 27
-125 16 -120 16 -120 -7z"/>
<path d="M1400 130 c0 -20 5 -21 108 -18 87 2 107 6 107 18 0 12 -20 16 -107
18 -103 3 -108 2 -108 -18z"/>
<path d="M1760 130 c0 -20 5 -21 108 -18 87 2 107 6 107 18 0 12 -20 16 -107
18 -103 3 -108 2 -108 -18z"/>
<path d="M2120 130 c0 -20 5 -21 108 -18 87 2 107 6 107 18 0 12 -20 16 -107
18 -103 3 -108 2 -108 -18z"/>
<path d="M2476 142 c-2 -4 -1 -14 3 -20 5 -9 37 -12 112 -10 84 2 104 6 104
18 0 12 -20 16 -107 18 -58 1 -109 -1 -112 -6z"/>
<path d="M2836 142 c-2 -4 -1 -14 3 -20 5 -9 37 -12 112 -10 84 2 104 6 104
18 0 12 -20 16 -107 18 -58 1 -109 -1 -112 -6z"/>
<path d="M3196 142 c-2 -4 -1 -14 3 -20 5 -9 37 -12 112 -10 84 2 104 6 104
18 0 12 -20 16 -107 18 -58 1 -109 -1 -112 -6z"/>
<path d="M3556 142 c-2 -4 -1 -14 3 -20 5 -9 37 -12 112 -10 84 2 104 6 104
18 0 12 -20 16 -107 18 -58 1 -109 -1 -112 -6z"/>
<path d="M3916 142 c-2 -4 -1 -14 3 -20 5 -9 37 -12 112 -10 84 2 104 6 104
18 0 12 -20 16 -107 18 -58 1 -109 -1 -112 -6z"/>
<path d="M4276 142 c-2 -4 -1 -14 3 -20 5 -9 37 -12 112 -10 84 2 104 6 104
18 0 12 -20 16 -107 18 -58 1 -109 -1 -112 -6z"/>
<path d="M4636 142 c-2 -4 -1 -14 3 -20 5 -9 37 -12 112 -10 84 2 104 6 104
18 0 12 -20 16 -107 18 -58 1 -109 -1 -112 -6z"/>
<path d="M4996 142 c-2 -4 -1 -14 3 -20 5 -9 37 -12 112 -10 84 2 104 6 104
18 0 12 -20 16 -107 18 -58 1 -109 -1 -112 -6z"/>
<path d="M5356 142 c-2 -4 -1 -14 3 -20 5 -9 37 -12 112 -10 84 2 104 6 104
18 0 12 -20 16 -107 18 -58 1 -109 -1 -112 -6z"/>
<path d="M5716 142 c-2 -4 -1 -14 3 -20 5 -9 37 -12 112 -10 84 2 104 6 104
18 0 12 -20 16 -107 18 -58 1 -109 -1 -112 -6z"/>
<path d="M6076 142 c-2 -4 -1 -14 3 -20 5 -9 37 -12 112 -10 84 2 104 6 104
18 0 12 -20 16 -107 18 -58 1 -109 -1 -112 -6z"/>
<path d="M9010 120 c0 -19 6 -20 111 -20 100 0 110 2 107 18 -3 15 -18 17
-111 20 -102 3 -107 2 -107 -18z"/>
<path d="M9370 120 c0 -19 6 -20 111 -20 100 0 110 2 107 18 -3 15 -18 17
-111 20 -102 3 -107 2 -107 -18z"/>
<path d="M9730 120 c0 -19 6 -20 111 -20 100 0 110 2 107 18 -3 15 -18 17
-111 20 -102 3 -107 2 -107 -18z"/>
<path d="M10090 120 c0 -19 6 -20 111 -20 100 0 110 2 107 18 -3 15 -18 17
-111 20 -102 3 -107 2 -107 -18z"/>
<path d="M10450 120 c0 -19 6 -20 111 -20 100 0 110 2 107 18 -3 15 -18 17
-111 20 -102 3 -107 2 -107 -18z"/>
<path d="M10810 120 c0 -19 6 -20 111 -20 100 0 110 2 107 18 -3 15 -18 17
-111 20 -102 3 -107 2 -107 -18z"/>
<path d="M11170 120 c0 -19 6 -20 111 -20 100 0 110 2 107 18 -3 15 -18 17
-111 20 -102 3 -107 2 -107 -18z"/>
<path d="M11530 120 c0 -19 6 -20 111 -20 100 0 110 2 107 18 -3 15 -18 17
-111 20 -102 3 -107 2 -107 -18z"/>
<path d="M11890 120 c0 -19 6 -20 111 -20 100 0 110 2 107 18 -3 15 -18 17
-111 20 -102 3 -107 2 -107 -18z"/>
<path d="M12250 120 c0 -19 6 -20 111 -20 100 0 110 2 107 18 -3 15 -18 17
-111 20 -102 3 -107 2 -107 -18z"/>
<path d="M12610 120 c0 -19 6 -20 111 -20 100 0 110 2 107 18 -3 15 -18 17
-111 20 -102 3 -107 2 -107 -18z"/>
<path d="M12970 120 c0 -19 6 -20 111 -20 100 0 110 2 107 18 -3 15 -18 17
-111 20 -102 3 -107 2 -107 -18z"/>
<path d="M13330 120 c0 -19 6 -20 111 -20 100 0 110 2 107 18 -3 15 -18 17
-111 20 -102 3 -107 2 -107 -18z"/>
<path d="M13690 120 c0 -20 5 -21 108 -18 87 2 107 6 107 18 0 12 -20 16 -107
18 -103 3 -108 2 -108 -18z"/>
<path d="M14050 120 c0 -20 5 -21 108 -18 87 2 107 6 107 18 0 12 -20 16 -107
18 -103 3 -108 2 -108 -18z"/>
<path d="M14410 120 c0 -20 5 -21 108 -18 87 2 107 6 107 18 0 12 -20 16 -107
18 -103 3 -108 2 -108 -18z"/>
<path d="M14770 120 c0 -20 5 -21 108 -18 87 2 107 6 107 18 0 12 -20 16 -107
18 -103 3 -108 2 -108 -18z"/>
<path d="M15130 120 c0 -20 5 -21 108 -18 87 2 107 6 107 18 0 12 -20 16 -107
18 -103 3 -108 2 -108 -18z"/>
</g>
</svg>
